/* XPM */
static char * bottom_left_active_xpm[] = {
"6 5 9 1",
" 	c None",
".	c #0C0C0C",
"+	c #525252",
"@	c #575757",
"#	c #4E4E4E",
"$	c #404040",
"%	c #464646",
"&	c #4D4D4D",
"*	c #0A0A0A",
" .+@@@",
" .##@@",
"  .$%&",
"   **%",
"     ."};
