/* XPM */
static char * bottom_left_inactive_xpm[] = {
"6 5 8 1",
" 	c None",
".	c #333333",
"+	c #525252",
"@	c #575757",
"#	c #4E4E4E",
"$	c #404040",
"%	c #464646",
"&	c #4D4D4D",
" .+@@@",
" .##@@",
"  .$%&",
"   ..%",
"     ."};
