/* XPM */
static char * bottom_right_active_xpm[] = {
"6 5 8 1",
" 	c None",
".	c #575757",
"+	c #525252",
"@	c #0C0C0C",
"#	c #4E4E4E",
"$	c #464646",
"%	c #3A3A3A",
"&	c #0A0A0A",
"...+@ ",
"..##@ ",
"#$%@  ",
"$&&   ",
"@     "};
