/* XPM */
static char * bottom_right_inactive_xpm[] = {
"6 5 7 1",
" 	c None",
".	c #575757",
"+	c #525252",
"@	c #333333",
"#	c #4E4E4E",
"$	c #464646",
"%	c #3A3A3A",
"...+@ ",
"..##@ ",
"#$%@  ",
"$@@   ",
"@     "};
