/* XPM */
static char * close_active_xpm[] = {
"32 25 94 2",
"  	c None",
". 	c #696969",
"+ 	c #7C7C7C",
"@ 	c #5C5C5C",
"# 	c #777777",
"$ 	c #818181",
"% 	c #4C4C4C",
"& 	c #7D7D7D",
"* 	c #686868",
"= 	c #7B7B7B",
"- 	c #5A5A5A",
"; 	c #767676",
"> 	c #808080",
", 	c #494949",
"' 	c #676767",
") 	c #797979",
"! 	c #575757",
"~ 	c #757575",
"{ 	c #5E5E5E",
"] 	c #595959",
"^ 	c #656565",
"/ 	c #565656",
"( 	c #616161",
"_ 	c #454545",
": 	c #787878",
"< 	c #555555",
"[ 	c #C4C4C4",
"} 	c #646464",
"| 	c #D4D4D4",
"1 	c #6A6A6A",
"2 	c #424242",
"3 	c #7A7A7A",
"4 	c #666666",
"5 	c #525252",
"6 	c #E0E0E0",
"7 	c #CBCBCB",
"8 	c #5B5B5B",
"9 	c #636363",
"0 	c #DFDFDF",
"a 	c #D1D1D1",
"b 	c #606060",
"c 	c #7F7F7F",
"d 	c #3F3F3F",
"e 	c #505050",
"f 	c #747474",
"g 	c #CACACA",
"h 	c #626262",
"i 	c #DEDEDE",
"j 	c #3D3D3D",
"k 	c #4D4D4D",
"l 	c #737373",
"m 	c #D0D0D0",
"n 	c #5F5F5F",
"o 	c #393939",
"p 	c #4B4B4B",
"q 	c #E3E3E3",
"r 	c #373737",
"s 	c #717171",
"t 	c #727272",
"u 	c #E2E2E2",
"v 	c #CCCCCC",
"w 	c #343434",
"x 	c #707070",
"y 	c #464646",
"z 	c #DDDDDD",
"A 	c #E1E1E1",
"B 	c #313131",
"C 	c #6E6E6E",
"D 	c #444444",
"E 	c #585858",
"F 	c #2F2F2F",
"G 	c #6D6D6D",
"H 	c #5D5D5D",
"I 	c #2C2C2C",
"J 	c #404040",
"K 	c #6F6F6F",
"L 	c #CECECE",
"M 	c #DCDCDC",
"N 	c #292929",
"O 	c #515151",
"P 	c #272727",
"Q 	c #3C3C3C",
"R 	c #252525",
"S 	c #2D2D2D",
"T 	c #1B1B1B",
"U 	c #242424",
"V 	c #4E4E4E",
"W 	c #353535",
"X 	c #484848",
"Y 	c #1E1E1E",
"Z 	c #1D1D1D",
"` 	c #202020",
" .	c #7E7E7E",
"..	c #6C6C6C",
". . . . . + @ # . . . . . . . . . . . . . . . . . . . . . $ % & ",
"* * * * * = - ; * * * * * * * * * * * * * * * * * * * * * > , + ",
"' ' ' ' ' ) ! ~ ' ' ' ' ' { ] ' ' ' ' ' ' ^ / ( ' ' ' ' ' > _ = ",
"' ' ' ' ' : < ~ ' ' ' ' ' ; [ @ ' ' ' ' } * | 1 ' ' ' ' ' > 2 3 ",
"4 4 4 4 4 # 5 ~ 4 4 4 4 4 } 6 7 8 4 4 9 4 0 a b 4 4 4 4 4 c d ) ",
"^ ^ ^ ^ ^ ~ e f ^ ^ ^ ^ ^ ( * 6 g - h h i a b ^ ^ ^ ^ ^ ^ & j # ",
"} } } } } f k l } } } } } } b 4 0 g 1 i m n } } } } } } } + o ; ",
"} } } } } l p l } } } } } } } b ^ 6 q a n } } } } } } } } + r ~ ",
"9 9 9 9 9 s , t 9 9 9 9 9 9 9 b 9 0 u v n 9 9 9 9 9 9 9 9 + w f ",
"h h h h h x y s h h h h h h n 9 z m t A g { h h h h h h h = B l ",
"( ( ( ( ( C D x ( ( ( ( ( { h z m E @ ' 6 g { ( ( ( ( ( ( 3 F s ",
"( ( ( ( ( G 2 x ( ( ( ( ( b z m E ( ( @ * 6 g H ( ( ( ( ( 3 I s ",
"b b b b b G J K b b b b b # L E b b b b @ . M * b b b b b ) N x ",
"n n n n n C j C n n n n n < 5 n n n n n n @ O E n n n n n : P s ",
"n n n n n x Q C n n n n n n n n n n n n n n n n n n n n n : R l ",
"{ { { { { ~ S x { { { { { { { { { { { { { { { { { { { { { : T ) ",
"H H H H H + U V 4 4 4 4 4 4 4 4 4 4 4 4 4 4 4 4 4 4 4 4 4 _ W ; ",
"@ @ @ @ @ 9 = X Y Z Z Z Z Z Z Z Z Z Z Z Z Z Z Z Z Z Z Z ` O  .{ ",
"@ @ @ @ @ @ @ ..= + + + + + + + + + + + + + + + + + + + = * @ @ ",
"8 8 8 8 8 8 8 8 8 8 8 8 8 8 8 8 8 8 8 8 8 8 8 8 8 8 8 8 8 8 8 8 ",
"- - - - - - - - - - - - - - - - - - - - - - - - - - - - - - - - ",
"] ] ] ] ] ] ] ] ] ] ] ] ] ] ] ] ] ] ] ] ] ] ] ] ] ] ] ] ] ] ] ] ",
"] ] ] ] ] ] ] ] ] ] ] ] ] ] ] ] ] ] ] ] ] ] ] ] ] ] ] ] ] ] ] ] ",
"E E E E E E E E E E E E E E E E E E E E E E E E E E E E E E E E ",
"! ! ! ! ! ! ! ! ! ! ! ! ! ! ! ! ! ! ! ! ! ! ! ! ! ! ! ! ! ! ! ! "};
