/* XPM */
static char * close_prelight_xpm[] = {
"32 25 491 2",
"  	c None",
". 	c #696969",
"+ 	c #696868",
"@ 	c #857E7C",
"# 	c #6B5450",
"$ 	c #7D6E6D",
"% 	c #746160",
"& 	c #7A5D5B",
"* 	c #815855",
"= 	c #885450",
"- 	c #8C524D",
"; 	c #8D524D",
"> 	c #8A544F",
", 	c #865753",
"' 	c #805A56",
") 	c #7D5C59",
"! 	c #7C5D5A",
"~ 	c #7D5C58",
"{ 	c #825A56",
"] 	c #865551",
"^ 	c #8B534E",
"/ 	c #8E524D",
"( 	c #8C534E",
"_ 	c #7F5956",
": 	c #785D5C",
"< 	c #726261",
"[ 	c #847474",
"} 	c #624D48",
"| 	c #837F7D",
"1 	c #686868",
"2 	c #686767",
"3 	c #847C7B",
"4 	c #6A524E",
"5 	c #7D6C6B",
"6 	c #745E5D",
"7 	c #7D5A58",
"8 	c #8E504A",
"9 	c #954D46",
"0 	c #964D44",
"a 	c #954E46",
"b 	c #8F4F49",
"c 	c #8A534D",
"d 	c #865550",
"e 	c #855651",
"f 	c #875550",
"g 	c #8B524C",
"h 	c #904F48",
"i 	c #954D45",
"j 	c #934D46",
"k 	c #8C504B",
"l 	c #845652",
"m 	c #7B5B59",
"n 	c #73605F",
"o 	c #857473",
"p 	c #614A45",
"q 	c #847D7C",
"r 	c #676767",
"s 	c #676666",
"t 	c #827B79",
"u 	c #684F4B",
"v 	c #7C6B6A",
"w 	c #745D5C",
"x 	c #7D5956",
"y 	c #88524E",
"z 	c #924C47",
"A 	c #994941",
"B 	c #A2483C",
"C 	c #A84C3F",
"D 	c #9A4940",
"E 	c #964C44",
"F 	c #924F47",
"G 	c #914F47",
"H 	c #934E46",
"I 	c #974B43",
"J 	c #9B483F",
"K 	c #AA4C3E",
"L 	c #9E463B",
"M 	c #984A42",
"N 	c #904E48",
"O 	c #84544F",
"P 	c #7B5957",
"Q 	c #735F5E",
"R 	c #847372",
"S 	c #5F4742",
"T 	c #827C7B",
"U 	c #837A79",
"V 	c #664D49",
"W 	c #7B6B6A",
"X 	c #735E5D",
"Y 	c #7C5A57",
"Z 	c #87534F",
"` 	c #924E47",
" .	c #D28C7F",
"..	c #F3DFDB",
"+.	c #BA6151",
"@.	c #A1473B",
"#.	c #9F493D",
"$.	c #9E493E",
"%.	c #9F483D",
"&.	c #A2463A",
"*.	c #C47162",
"=.	c #FAF2F0",
"-.	c #C57668",
";.	c #8F4E48",
">.	c #835450",
",.	c #7A5A58",
"'.	c #725F5E",
").	c #837372",
"!.	c #5D4540",
"~.	c #817C7A",
"{.	c #666666",
"].	c #666565",
"^.	c #817977",
"/.	c #634B47",
"(.	c #7A6B6A",
"_.	c #705F5E",
":.	c #785A58",
"<.	c #825450",
"[.	c #8D4E48",
"}.	c #984940",
"|.	c #C47668",
"1.	c #FEFDFD",
"2.	c #F5E5E2",
"3.	c #BE5D4D",
"4.	c #AA4334",
"5.	c #AA4435",
"6.	c #AA4333",
"7.	c #C87060",
"8.	c #FEFBFB",
"9.	c #F9EFED",
"0.	c #B76153",
"a.	c #964A42",
"b.	c #8B504A",
"c.	c #805652",
"d.	c #765B59",
"e.	c #6E5F5E",
"f.	c #817373",
"g.	c #5B433D",
"h.	c #817B7A",
"i.	c #656565",
"j.	c #646464",
"k.	c #807876",
"l.	c #624945",
"m.	c #776B6B",
"n.	c #6E605F",
"o.	c #745B5A",
"p.	c #7C5753",
"q.	c #88514C",
"r.	c #934B43",
"s.	c #9F4539",
"t.	c #CA7C6E",
"u.	c #F5E5E1",
"v.	c #C15C48",
"w.	c #B2412C",
"x.	c #CA6F5D",
"y.	c #FDFBFA",
"z.	c #F9EFEC",
"A.	c #BF6555",
"B.	c #9C483D",
"C.	c #914D45",
"D.	c #84524D",
"E.	c #7A5855",
"F.	c #715C5B",
"G.	c #6C605F",
"H.	c #807373",
"I.	c #59413B",
"J.	c #807978",
"K.	c #7F7775",
"L.	c #5F4843",
"M.	c #756B6B",
"N.	c #6A605F",
"O.	c #6F5C5B",
"P.	c #785956",
"Q.	c #81524E",
"R.	c #8E4D46",
"S.	c #9A483D",
"T.	c #A64234",
"U.	c #CD7C6C",
"V.	c #D27E6D",
"W.	c #F9EDEB",
"X.	c #C16351",
"Y.	c #A34437",
"Z.	c #97493F",
"`.	c #8B4E48",
" +	c #7F5450",
".+	c #755957",
"++	c #6E5D5C",
"@+	c #696160",
"#+	c #7E7373",
"$+	c #563E39",
"%+	c #7F7877",
"&+	c #7F7674",
"*+	c #5D4641",
"=+	c #756C6C",
"-+	c #686060",
";+	c #6D5D5C",
">+	c #755A58",
",+	c #7F5551",
"'+	c #98493F",
")+	c #A44436",
"!+	c #B0402D",
"~+	c #CF7B6B",
"{+	c #FFFEFE",
"]+	c #FFFFFF",
"^+	c #C5634F",
"/+	c #AC4231",
"(+	c #A14538",
"_+	c #954A41",
":+	c #87504A",
"<+	c #7B5652",
"[+	c #725A59",
"}+	c #6C5F5E",
"|+	c #676060",
"1+	c #553C37",
"2+	c #7E7876",
"3+	c #636363",
"4+	c #7D7573",
"5+	c #5C433F",
"6+	c #746B6B",
"7+	c #675F5F",
"8+	c #6C5D5C",
"9+	c #745957",
"0+	c #7E5450",
"a+	c #8A4E48",
"b+	c #96483E",
"c+	c #A44435",
"d+	c #AF3F2E",
"e+	c #CC7462",
"f+	c #F7E7E4",
"g+	c #C35F4A",
"h+	c #AC4230",
"i+	c #A04437",
"j+	c #944940",
"k+	c #864F49",
"l+	c #7A5551",
"m+	c #715958",
"n+	c #6B5E5D",
"o+	c #665F5F",
"p+	c #7C7272",
"q+	c #533A35",
"r+	c #7D7775",
"s+	c #626262",
"t+	c #7C7472",
"u+	c #5A413C",
"v+	c #736969",
"w+	c #685E5D",
"x+	c #6D5A59",
"y+	c #755754",
"z+	c #80514D",
"A+	c #8D4C45",
"B+	c #99473C",
"C+	c #A44133",
"D+	c #CA7463",
"E+	c #F8EBE9",
"F+	c #D48777",
"G+	c #F6E5E3",
"H+	c #BF5F4D",
"I+	c #A24336",
"J+	c #96473E",
"K+	c #8A4D47",
"L+	c #7D534F",
"M+	c #725755",
"N+	c #6C5C5B",
"O+	c #675F5E",
"P+	c #7C7171",
"Q+	c #513731",
"R+	c #7C7574",
"S+	c #616161",
"T+	c #606060",
"U+	c #7B7270",
"V+	c #583F3A",
"W+	c #746767",
"X+	c #695C5B",
"Y+	c #6F5756",
"Z+	c #795450",
"`+	c #854E49",
" @	c #904841",
".@	c #9C4338",
"+@	c #C77465",
"@@	c #C15E4B",
"#@	c #B13D29",
"$@	c #CC7564",
"%@	c #F6E7E4",
"&@	c #BB5F50",
"*@	c #99453A",
"=@	c #8D4A42",
"-@	c #814F4A",
";@	c #775552",
">@	c #6D5857",
",@	c #685D5C",
"'@	c #7D7070",
")@	c #4F352F",
"!@	c #7B7473",
"~@	c #616060",
"{@	c #573D37",
"]@	c #746666",
"^@	c #6B5A59",
"/@	c #745654",
"(@	c #7E514D",
"_@	c #8A4B45",
":@	c #95453D",
"<@	c #C16F61",
"[@	c #BE5E4E",
"}@	c #A84031",
"|@	c #A74031",
"1@	c #A93F2F",
"2@	c #C97566",
"3@	c #F7E8E5",
"4@	c #B45C4E",
"5@	c #93473F",
"6@	c #884D47",
"7@	c #7B524E",
"8@	c #6A5B5A",
"9@	c #7E6F6F",
"0@	c #4E332D",
"a@	c #7B7472",
"b@	c #605F5F",
"c@	c #7A706F",
"d@	c #543A35",
"e@	c #746564",
"f@	c #6C5856",
"g@	c #765451",
"h@	c #804D49",
"i@	c #8D4842",
"j@	c #97443B",
"k@	c #D39083",
"l@	c #F7E9E6",
"m@	c #9E4337",
"n@	c #9B4338",
"o@	c #9B4439",
"p@	c #9C4438",
"q@	c #9F4134",
"r@	c #C67566",
"s@	c #FDF9F8",
"t@	c #C5786B",
"u@	c #94453C",
"v@	c #8B4A44",
"w@	c #7E4F4B",
"x@	c #745452",
"y@	c #6C5958",
"z@	c #7E6E6D",
"A@	c #4C302B",
"B@	c #7A7271",
"C@	c #5F5F5F",
"D@	c #5F5E5E",
"E@	c #796F6D",
"F@	c #533833",
"G@	c #756463",
"H@	c #6D5655",
"I@	c #76524F",
"J@	c #824C48",
"K@	c #8C4741",
"L@	c #94443B",
"M@	c #A24538",
"N@	c #A94C3D",
"O@	c #96443B",
"P@	c #92463E",
"Q@	c #8D4840",
"R@	c #8C4941",
"S@	c #8E4840",
"T@	c #92463D",
"U@	c #984339",
"V@	c #AC4D3E",
"W@	c #9C4137",
"X@	c #94443D",
"Y@	c #8A4842",
"Z@	c #7E4D49",
"`@	c #745250",
" #	c #6B5756",
".#	c #7E6D6C",
"+#	c #4B2E28",
"@#	c #797170",
"##	c #7A6D6C",
"$#	c #523631",
"%#	c #6C5655",
"&#	c #755250",
"*#	c #884943",
"=#	c #8E463F",
"-#	c #91463E",
";#	c #8F473F",
">#	c #844C46",
",#	c #804E49",
"'#	c #7F4F4A",
")#	c #814D48",
"!#	c #864B45",
"~#	c #8B4841",
"{#	c #8F473E",
"]#	c #91453E",
"^#	c #8E4640",
"/#	c #874A45",
"(#	c #7D4F4B",
"_#	c #735351",
":#	c #6A5756",
"<#	c #492C27",
"[#	c #7B706F",
"}#	c #5E5E5E",
"|#	c #5E5D5D",
"1#	c #7F6F6D",
"2#	c #766565",
"3#	c #715351",
"4#	c #794F4C",
"5#	c #7F4B47",
"6#	c #854A45",
"7#	c #854A44",
"8#	c #824B46",
"9#	c #7D4D49",
"0#	c #77514D",
"a#	c #74524F",
"b#	c #725350",
"c#	c #75524F",
"d#	c #79504C",
"e#	c #7E4C48",
"f#	c #834B46",
"g#	c #854944",
"h#	c #844A45",
"i#	c #77504D",
"j#	c #705452",
"k#	c #695857",
"l#	c #7C6A6A",
"m#	c #44261F",
"n#	c #7F7271",
"o#	c #5D5D5D",
"p#	c #5D5C5C",
"q#	c #7F7373",
"r#	c #4C2D27",
"s#	c #5C4440",
"t#	c #715C5A",
"u#	c #765957",
"v#	c #795653",
"w#	c #7D5450",
"x#	c #7F524E",
"y#	c #7F534E",
"z#	c #7A5552",
"A#	c #765856",
"B#	c #755A57",
"C#	c #735A58",
"D#	c #785855",
"E#	c #785654",
"F#	c #6F5B59",
"G#	c #563E3A",
"H#	c #573A35",
"I#	c #776E6E",
"J#	c #5C5C5C",
"K#	c #5B5B5B",
"L#	c #656161",
"M#	c #846B6A",
"N#	c #60423D",
"O#	c #44241E",
"P#	c #44241D",
"Q#	c #45241D",
"R#	c #46231D",
"S#	c #46241D",
"T#	c #45261F",
"U#	c #664844",
"V#	c #876E6D",
"W#	c #605D5D",
"X#	c #5C5B5B",
"Y#	c #5D5B5B",
"Z#	c #726666",
"`#	c #857070",
" $	c #86706F",
".$	c #896F6E",
"+$	c #896E6E",
"@$	c #8B6E6D",
"#$	c #8A6E6D",
"$$	c #88706F",
"%$	c #867170",
"&$	c #867070",
"*$	c #886F6E",
"=$	c #8A6F6E",
"-$	c #846F6F",
";$	c #6E6464",
">$	c #5B5A5A",
",$	c #5C5959",
"'$	c #5E5959",
")$	c #5E5858",
"!$	c #605858",
"~$	c #5F5757",
"{$	c #5F5858",
"]$	c #5D5858",
"^$	c #5D5959",
"/$	c #5B5959",
"($	c #5A5A5A",
"_$	c #5A5959",
":$	c #5B5858",
"<$	c #5C5858",
"[$	c #5A5858",
"}$	c #595959",
"|$	c #595858",
"1$	c #585858",
"2$	c #575757",
". . . . + @ # $ % & * = - ; > , ' ) ! ~ { ] ^ / ( ] _ : < [ } | ",
"1 1 1 1 2 3 4 5 6 7 ] 8 9 0 a b c d e f g h i 0 j k l m n o p q ",
"r r r r s t u v w x y z A B C D E F G H I J K L M N O P Q R S T ",
"r r r r s U V W X Y Z ` J  ...+.@.#.$.%.&.*.=.-.A ;.>.,.'.).!.~.",
"{.{.{.{.].^./.(._.:.<.[.}.|.1.2.3.4.5.6.7.8.9.0.a.b.c.d.e.f.g.h.",
"i.i.i.i.j.k.l.m.n.o.p.q.r.s.t.1.u.v.w.x.y.z.A.B.C.D.E.F.G.H.I.J.",
"j.j.j.j.j.K.L.M.N.O.P.Q.R.S.T.U.1.2.V.y.W.X.Y.Z.`. +.+++@+#+$+%+",
"j.j.j.j.j.&+*+=+-+;+>+,+`.'+)+!+~+{+]+W.^+/+(+_+:+<+[+}+|+#+1+2+",
"3+3+3+3+3+4+5+6+7+8+9+0+a+b+c+d+e+1.]+f+g+h+i+j+k+l+m+n+o+p+q+r+",
"s+s+s+s+s+t+u+v+w+x+y+z+A+B+C+D+8.E+F+1.G+H+I+J+K+L+M+N+O+P+Q+R+",
"S+S+S+S+T+U+V+W+X+Y+Z+`+ @.@+@8.E+@@#@$@1.%@&@*@=@-@;@>@,@'@)@!@",
"S+S+S+S+~@U+{@]@^@/@(@_@:@<@8.E+[@}@|@1@2@1.3@4@5@6@7@M+8@9@0@a@",
"T+T+T+T+b@c@d@e@f@g@h@i@j@k@l@&@m@n@o@p@q@r@s@t@u@v@w@x@y@z@A@B@",
"C@C@C@C@D@E@F@G@H@I@J@K@L@M@N@O@P@Q@R@S@T@U@V@W@X@Y@Z@`@ #.#+#@#",
"C@C@C@C@D@##$#G@%#&#Z@*#=#-#;#Y@>#,#'#)#!#~#{#]#^#/#(#_#:#.#<#[#",
"}#}#}#}#|#1#<#2#:#3#4#5#6#7#8#9#0#a#b#c#d#e#f#g#h#e#i#j#k#l#m#n#",
"o#o#o#o#p#q#r#s#t#u#v#w#x#y#w#z#A#B#C#.+D#<+L+x#x#w#E#B#F#G#H#I#",
"J#J#J#J#K#L#M#N#O#P#Q#R#R#R#S#Q#P#Q#Q#Q#P#Q#R#R#R#S#Q#Q#T#U#V#W#",
"J#J#J#J#J#X#Y#Z#`# $.$+$@$#$.$$$%$`#`#`#&$*$=$@$@$+$*$&$-$;$X#X#",
"K#K#K#K#K#K#>$>$,$'$)$!$~$!${$]$^$,$/$,$^$)${$!$~$!$)$^$,$>$>$K#",
"($($($($($($($_$_$/$:$<$<$<$:$/$_$_$_$_$_$[$:$<$<$<$:$/$_$_$($($",
"}$}$}$}$}$}$}$}$|$|$|$|$|$|$|$|$|$}$}$|$|$|$|$|$|$|$|$|$|$}$}$}$",
"}$}$}$}$}$}$}$}$}$}$}$}$}$}$}$}$}$}$}$}$}$}$}$}$}$}$}$}$}$}$}$}$",
"1$1$1$1$1$1$1$1$1$1$1$1$1$1$1$1$1$1$1$1$1$1$1$1$1$1$1$1$1$1$1$1$",
"2$2$2$2$2$2$2$2$2$2$2$2$2$2$2$2$2$2$2$2$2$2$2$2$2$2$2$2$2$2$2$2$"};
