/* XPM */
static char * close_pressed_xpm[] = {
"32 25 163 2",
"  	c None",
". 	c #696969",
"+ 	c #847E7C",
"@ 	c #594945",
"# 	c #534E4E",
"$ 	c #5A4844",
"% 	c #837F7D",
"& 	c #686868",
"* 	c #827C7B",
"= 	c #574742",
"- 	c #584641",
"; 	c #827D7C",
"> 	c #676767",
", 	c #817B79",
"' 	c #554440",
") 	c #56423E",
"! 	c #817C7B",
"~ 	c #817A78",
"{ 	c #54423E",
"] 	c #6D4747",
"^ 	c #794D4D",
"/ 	c #544747",
"( 	c #5C4545",
"_ 	c #7F5555",
": 	c #664747",
"< 	c #54403B",
"[ 	c #807B7A",
"} 	c #666666",
"| 	c #807977",
"1 	c #53403B",
"2 	c #534D4D",
"3 	c #906565",
"4 	c #FEFCFC",
"5 	c #855757",
"6 	c #5C4242",
"7 	c #A48282",
"8 	c #FFFDFD",
"9 	c #815757",
"0 	c #523E38",
"a 	c #7F7A79",
"b 	c #656565",
"c 	c #7E7775",
"d 	c #503E39",
"e 	c #6D4545",
"f 	c #CFBDBD",
"g 	c #544646",
"h 	c #524C4C",
"i 	c #5D4343",
"j 	c #A38181",
"k 	c #B19393",
"l 	c #614747",
"m 	c #503B35",
"n 	c #7E7977",
"o 	c #646464",
"p 	c #7D7674",
"q 	c #4F3C36",
"r 	c #6B4444",
"s 	c #CDBABA",
"t 	c #613C3C",
"u 	c #A37E7E",
"v 	c #B09191",
"w 	c #624747",
"x 	c #4E3832",
"y 	c #7D7776",
"z 	c #7C7573",
"A 	c #4E3A34",
"B 	c #6C4343",
"C 	c #CCB9B9",
"D 	c #FDFDFD",
"E 	c #C0A8A8",
"F 	c #AD8E8E",
"G 	c #624646",
"H 	c #4C3630",
"I 	c #7D7775",
"J 	c #636363",
"K 	c #7B7471",
"L 	c #4C3832",
"M 	c #534C4C",
"N 	c #6F3939",
"O 	c #F5F1F1",
"P 	c #FFFFFF",
"Q 	c #CCB7B7",
"R 	c #634141",
"S 	c #4A332D",
"T 	c #7B7674",
"U 	c #626262",
"V 	c #7A7270",
"W 	c #4A352F",
"X 	c #5F4545",
"Y 	c #A27D7D",
"Z 	c #FDFCFC",
"` 	c #8A5E5E",
" .	c #564949",
"..	c #48302A",
"+.	c #7A7473",
"@.	c #616161",
"#.	c #79716E",
"$.	c #48332D",
"%.	c #AD8F8F",
"&.	c #6F3838",
"*.	c #D0BFBF",
"=.	c #FEFDFD",
"-.	c #895E5E",
";.	c #462E27",
">.	c #797371",
",.	c #78706D",
"'.	c #46322B",
").	c #AE8F8F",
"!.	c #614242",
"~.	c #6A4242",
"{.	c #D1C0C0",
"].	c #442C25",
"^.	c #606060",
"/.	c #786F6D",
"(.	c #442F29",
"_.	c #895B5B",
":.	c #604242",
"<.	c #6B4343",
"[.	c #D2C2C2",
"}.	c #7B4E4E",
"|.	c #412922",
"1.	c #787270",
"2.	c #5F5F5F",
"3.	c #78706E",
"4.	c #432D27",
"5.	c #7A4646",
"6.	c #916666",
"7.	c #6B4646",
"8.	c #986E6E",
"9.	c #724747",
"0.	c #3F271F",
"a.	c #402C25",
"b.	c #3C251D",
"c.	c #5E5E5E",
"d.	c #3A2119",
"e.	c #524B4B",
"f.	c #381E15",
"g.	c #5D5D5D",
"h.	c #7D7C7C",
"i.	c #432A22",
"j.	c #42312C",
"k.	c #4E4442",
"l.	c #4E4443",
"m.	c #4D4342",
"n.	c #402D27",
"o.	c #513C35",
"p.	c #767676",
"q.	c #5C5C5C",
"r.	c #827D7B",
"s.	c #5E4D48",
"t.	c #3F261E",
"u.	c #3F261D",
"v.	c #412820",
"w.	c #665651",
"x.	c #837F7E",
"y.	c #6C6C6C",
"z.	c #7B7B7B",
"A.	c #7C7C7C",
"B.	c #5B5B5B",
"C.	c #5A5A5A",
"D.	c #595959",
"E.	c #585858",
"F.	c #575757",
". . . . . + @ # # # # # # # # # # # # # # # # # # # # # # # $ % ",
"& & & & & * = # # # # # # # # # # # # # # # # # # # # # # # - ; ",
"> > > > > , ' # # # # # # # # # # # # # # # # # # # # # # # ) ! ",
"> > > > > ~ { # # # # # # ] ^ / # # # # # ( _ : # # # # # # < [ ",
"} } } } } | 1 2 2 2 2 2 2 3 4 5 / 2 2 2 6 7 8 9 2 2 2 2 2 2 0 a ",
"b b b b b c d 2 2 2 2 2 2 e f 8 5 g h i j 8 k l 2 2 2 2 2 2 m n ",
"o o o o o p q 2 2 2 2 2 2 h r s 8 5 t u 8 v w 2 2 2 2 2 2 2 x y ",
"o o o o o z A 2 2 2 2 2 2 2 h B C D E D F G 2 2 2 2 2 2 2 2 H I ",
"J J J J J K L 2 2 2 2 2 2 2 2 M N O P Q R h 2 2 2 2 2 2 2 2 S T ",
"U U U U U V W 2 2 2 2 2 2 2 2 X Y D Z D `  .2 2 2 2 2 2 2 2 ..+.",
"@.@.@.@.@.#.$.2 2 2 2 2 2 2 X u 8 %.&.*.=.-. .2 2 2 2 2 2 2 ;.>.",
"@.@.@.@.@.,.'.2 2 2 2 2 2 X u 8 ).!.M ~.{.=.-. .2 2 2 2 2 2 ].>.",
"^.^.^.^.^./.(.2 2 2 2 2 2 _.8 ).:.2 2 h <.[.8 }.2 2 2 2 2 2 |.1.",
"2.2.2.2.2.3.4.2 2 2 2 2 2 5.6.:.2 2 2 2 h 7.8.9.2 2 2 2 2 2 0.>.",
"2.2.2.2.2.V a.2 2 2 2 2 2 2 M 2 2 2 2 2 2 2 M 2 2 2 2 2 2 2 b.+.",
"c.c.c.c.c.I d.2 2 2 2 2 2 2 2 2 2 2 2 2 2 2 2 2 2 2 2 2 2 e.f.a ",
"g.g.g.g.g.h.i.j.k.l.l.l.l.l.l.l.l.l.l.l.l.l.l.l.l.l.l.l.m.n.o.p.",
"q.q.q.q.q.J r.s.t.u.u.u.u.u.u.u.u.u.u.u.u.u.u.u.u.u.u.u.v.w.x.c.",
"q.q.q.q.q.q.q.y.z.A.A.A.A.A.A.A.A.A.A.A.A.A.A.A.A.A.A.A.z.& q.q.",
"B.B.B.B.B.B.B.B.B.B.B.B.B.B.B.B.B.B.B.B.B.B.B.B.B.B.B.B.B.B.B.B.",
"C.C.C.C.C.C.C.C.C.C.C.C.C.C.C.C.C.C.C.C.C.C.C.C.C.C.C.C.C.C.C.C.",
"D.D.D.D.D.D.D.D.D.D.D.D.D.D.D.D.D.D.D.D.D.D.D.D.D.D.D.D.D.D.D.D.",
"D.D.D.D.D.D.D.D.D.D.D.D.D.D.D.D.D.D.D.D.D.D.D.D.D.D.D.D.D.D.D.D.",
"E.E.E.E.E.E.E.E.E.E.E.E.E.E.E.E.E.E.E.E.E.E.E.E.E.E.E.E.E.E.E.E.",
"F.F.F.F.F.F.F.F.F.F.F.F.F.F.F.F.F.F.F.F.F.F.F.F.F.F.F.F.F.F.F.F."};
