/* XPM */
static char * close_inactive_xpm[] = {
"32 25 72 1",
" 	c None",
".	c #696969",
"+	c #707070",
"@	c #5E5E5E",
"#	c #757575",
"$	c #555555",
"%	c #717171",
"&	c #686868",
"*	c #6E6E6E",
"=	c #5C5C5C",
"-	c #6F6F6F",
";	c #747474",
">	c #535353",
",	c #676767",
"'	c #6D6D6D",
")	c #5A5A5A",
"!	c #626262",
"~	c #606060",
"{	c #666666",
"]	c #636363",
"^	c #737373",
"/	c #505050",
"(	c #6C6C6C",
"_	c #585858",
":	c #959595",
"<	c #656565",
"[	c #9D9D9D",
"}	c #4F4F4F",
"|	c #6B6B6B",
"1	c #565656",
"2	c #A2A2A2",
"3	c #989898",
"4	c #646464",
"5	c #9B9B9B",
"6	c #727272",
"7	c #4C4C4C",
"8	c #545454",
"9	c #979797",
"0	c #A1A1A1",
"a	c #4A4A4A",
"b	c #525252",
"c	c #A0A0A0",
"d	c #999999",
"e	c #616161",
"f	c #484848",
"g	c #6A6A6A",
"h	c #515151",
"i	c #A3A3A3",
"j	c #9A9A9A",
"k	c #464646",
"l	c #444444",
"m	c #4D4D4D",
"n	c #9F9F9F",
"o	c #969696",
"p	c #424242",
"q	c #4B4B4B",
"r	c #5F5F5F",
"s	c #5D5D5D",
"t	c #3F3F3F",
"u	c #3E3E3E",
"v	c #3C3C3C",
"w	c #595959",
"x	c #5B5B5B",
"y	c #3B3B3B",
"z	c #454545",
"A	c #383838",
"B	c #3D3D3D",
"C	c #333333",
"D	c #414141",
"E	c #363636",
"F	c #373737",
"G	c #575757",
".....+@+.....................#$%",
"&&&&&*=-&&&&&&&&&&&&&&&&&&&&&;>-",
",,,,,')*,,,,,!~,,,,,,{@],,,,,^/*",
",,,,,(_*,,,,,-:!,,,,<,[&,,,,,^}*",
"{{{{{|1'{{{{{<23~{{4<25!{{{{{67'",
"<<<<<.8(<<<<<]{29~]]05!<<<<<<%a|",
"44444&b|444444!<09{cde4444444+fg",
"44444,h|4444444!40ije44444444+kg",
"]]]]]{}g]]]]]]]e]029e]]]]]]]]-l&",
"!!!!!4mg!!!!!!~!nd.0o~!!!!!!!*p,",
"eeeee]q.eeeeer!n3s@]c:reeeeee*t{",
"eeeee]a.eeeee~n3seer]c:reeeee*u<",
"~~~~~!f&~~~~~|o=~~~~@4[4~~~~~'v4",
"rrrrrek,rrrrrw_rrrrrrs_xrrrrr(y4",
"rrrrr!z,rrrrrrrrrrrrrrrrrrrrr(A<",
"@@@@@<B,@@@@@@@@@@@@@@@@@@@@@gC.",
"sssss(A/rrrrrrrrrrrrrrrrrrrrrqD.",
"=====r&qEEEEEEEEEEEEEEEEEEEEF/gs",
"=======4|||||||||||||||||||||!==",
"xxxxxxxxxxxxxxxxxxxxxxxxxxxxxxxx",
"))))))))))))))))))))))))))))))))",
"wwwwwwwwwwwwwwwwwwwwwwwwwwwwwwww",
"wwwwwwwwwwwwwwwwwwwwwwwwwwwwwwww",
"________________________________",
"GGGGGGGGGGGGGGGGGGGGGGGGGGGGGGGG"};
