/* XPM */
static char * hide_active_xpm[] = {
"24 25 66 1",
" 	c None",
".	c #797979",
"+	c #444444",
"@	c #818181",
"#	c #696969",
"$	c #7F7F7F",
"%	c #454545",
"&	c #7B7B7B",
"*	c #787878",
"=	c #414141",
"-	c #808080",
";	c #686868",
">	c #424242",
",	c #7A7A7A",
"'	c #3E3E3E",
")	c #676767",
"!	c #7E7E7E",
"~	c #3F3F3F",
"{	c #3B3B3B",
"]	c #5D5D5D",
"^	c #575757",
"/	c #5C5C5C",
"(	c #3C3C3C",
"_	c #777777",
":	c #383838",
"<	c #666666",
"[	c #757575",
"}	c #E0E0E0",
"|	c #7D7D7D",
"1	c #3A3A3A",
"2	c #767676",
"3	c #363636",
"4	c #656565",
"5	c #BABABA",
"6	c #6B6B6B",
"7	c #7C7C7C",
"8	c #373737",
"9	c #333333",
"0	c #646464",
"a	c #5E5E5E",
"b	c #5A5A5A",
"c	c #343434",
"d	c #303030",
"e	c #313131",
"f	c #2F2F2F",
"g	c #636363",
"h	c #2D2D2D",
"i	c #626262",
"j	c #717171",
"k	c #616161",
"l	c #727272",
"m	c #2C2C2C",
"n	c #606060",
"o	c #1B1B1B",
"p	c #1A1A1A",
"q	c #2A2A2A",
"r	c #5F5F5F",
"s	c #848484",
"t	c #909090",
"u	c #929292",
"v	c #919191",
"w	c #858585",
"x	c #6A6A6A",
"y	c #5B5B5B",
"z	c #595959",
"A	c #585858",
".+@##################$%&",
"*=-;;;;;;;;;;;;;;;;;;$>,",
"*'$))))))))))))))))))!~,",
"*{$)))]^^^^^^^^^^/)))!(,",
"_:!<<<[}}}}}}}}}}*<<<|1.",
"23|444#5555555555644478*",
"[97000abbbbbbbbbba000&c*",
"2d7000000000000000000&e*",
"*f7gggggggggggggggggg,d&",
",h7iiiiiiiiiiiiiiiiii,h!",
"[+jkkkkkkkkkkkkkkkkkkl{.",
"4@m<<44444444444444<<f&;",
"n*|hoppppppppppppppoq.&n",
"rr;stuuuuuuuuuuuuuuvwxrr",
"rrrrrrrrrrrrrrrrrrrrrrrr",
"aaaaaaaaaaaaaaaaaaaaaaaa",
"]]]]]]]]]]]]]]]]]]]]]]]]",
"////////////////////////",
"////////////////////////",
"yyyyyyyyyyyyyyyyyyyyyyyy",
"bbbbbbbbbbbbbbbbbbbbbbbb",
"zzzzzzzzzzzzzzzzzzzzzzzz",
"zzzzzzzzzzzzzzzzzzzzzzzz",
"AAAAAAAAAAAAAAAAAAAAAAAA",
"^^^^^^^^^^^^^^^^^^^^^^^^"};
