/* XPM */
static char * hide_pressed_xpm[] = {
"24 25 76 1",
" 	c None",
".	c #797979",
"+	c #4D443E",
"@	c #55514F",
"#	c #4A423B",
"$	c #7B7B7B",
"%	c #787878",
"&	c #4B423B",
"*	c #49403A",
"=	c #7A7A7A",
"-	c #4A3F38",
";	c #54514F",
">	c #483D36",
",	c #493D35",
"'	c #473C33",
")	c #777777",
"!	c #483C32",
"~	c #A5532F",
"{	c #B57356",
"]	c #A65632",
"^	c #473B31",
"/	c #767676",
"(	c #483A30",
"_	c #BB7556",
":	c #FFFFFF",
"<	c #BE7C5F",
"[	c #47392F",
"}	c #757575",
"|	c #47382D",
"1	c #A15532",
"2	c #B06D50",
"3	c #A25633",
"4	c #45372C",
"5	c #48372B",
"6	c #46362A",
"7	c #48372A",
"8	c #54504F",
"9	c #473629",
"0	c #4A3729",
"a	c #473427",
"b	c #7E7E7E",
"c	c #5B4A3E",
"d	c #534E4C",
"e	c #54504E",
"f	c #534F4C",
"g	c #554336",
"h	c #696969",
"i	c #847E7A",
"j	c #544F4E",
"k	c #493D34",
"l	c #7F7873",
"m	c #6C6C6C",
"n	c #606060",
"o	c #7F7F7F",
"p	c #7E7671",
"q	c #442E1F",
"r	c #453326",
"s	c #463428",
"t	c #453327",
"u	c #432E1D",
"v	c #7C736D",
"w	c #848383",
"x	c #5F5F5F",
"y	c #717171",
"z	c #909090",
"A	c #91908E",
"B	c #919191",
"C	c #747474",
"D	c #5E5E5E",
"E	c #5D5D5D",
"F	c #5C5C5C",
"G	c #5B5B5B",
"H	c #5A5A5A",
"I	c #595959",
"J	c #585858",
"K	c #575757",
".+@@@@@@@@@@@@@@@@@@@@#$",
"%&@@@@@@@@@@@@@@@@@@@@*=",
"%-;;;;;;;;;;;;;;;;;;;;>=",
"%,;;;;;;;;;;;;;;;;;;;;'=",
")!;;;;~{{{{{{{{{{];;;;^.",
"/(;;;;_::::::::::<;;;;[%",
"}|;;;;122222222223;;;;4%",
"}5;;;;;;;;;;;;;;;;;;;;6%",
")7888888888888888888889=",
"=088888888888888888888ab",
"/cdeeeeeeeeeeeeeeeeeefg$",
"hi(jeeeeeeeeeeeeeeeejklm",
"nopqrsssssssssssssstuvwn",
"xxyzAAAAAAAAAAAAAAAABCxx",
"xxxxxxxxxxxxxxxxxxxxxxxx",
"DDDDDDDDDDDDDDDDDDDDDDDD",
"EEEEEEEEEEEEEEEEEEEEEEEE",
"FFFFFFFFFFFFFFFFFFFFFFFF",
"FFFFFFFFFFFFFFFFFFFFFFFF",
"GGGGGGGGGGGGGGGGGGGGGGGG",
"HHHHHHHHHHHHHHHHHHHHHHHH",
"IIIIIIIIIIIIIIIIIIIIIIII",
"IIIIIIIIIIIIIIIIIIIIIIII",
"JJJJJJJJJJJJJJJJJJJJJJJJ",
"KKKKKKKKKKKKKKKKKKKKKKKK"};
