/* XPM */
static char * hide_prelight_xpm[] = {
"24 25 213 2",
"  	c None",
". 	c #767574",
"+ 	c #5B4E3F",
"@ 	c #7F7771",
"# 	c #706966",
"$ 	c #786A63",
"% 	c #816C63",
"& 	c #887166",
"* 	c #8A7469",
"= 	c #8B756B",
"- 	c #8B766C",
"; 	c #8A746A",
"> 	c #887167",
", 	c #826D63",
"' 	c #786963",
") 	c #7D7570",
"! 	c #5B4D3F",
"~ 	c #787776",
"{ 	c #757473",
"] 	c #5A4C3C",
"^ 	c #7F7670",
"/ 	c #736762",
"( 	c #826A60",
"_ 	c #907061",
": 	c #9B7868",
"< 	c #9F7E6E",
"[ 	c #A08071",
"} 	c #A08172",
"| 	c #9F7E6F",
"1 	c #917162",
"2 	c #826A5F",
"3 	c #746862",
"4 	c #7E756F",
"5 	c #5B4D3D",
"6 	c #787675",
"7 	c #747372",
"8 	c #5A4B39",
"9 	c #80756E",
"0 	c #78675F",
"a 	c #8C6B5C",
"b 	c #A27661",
"c 	c #B0826D",
"d 	c #B68C78",
"e 	c #B8907D",
"f 	c #B9917F",
"g 	c #B78C78",
"h 	c #B1836D",
"i 	c #A37662",
"j 	c #8D6C5D",
"k 	c #7E756E",
"l 	c #5B4B39",
"m 	c #777574",
"n 	c #5B4A37",
"o 	c #81766E",
"p 	c #7D685E",
"q 	c #966D5B",
"r 	c #B17C63",
"s 	c #CD8E69",
"t 	c #D9986C",
"u 	c #DA9C72",
"v 	c #DB9D73",
"w 	c #D9986D",
"x 	c #CE8F69",
"y 	c #B27C63",
"z 	c #976F5C",
"A 	c #7D685D",
"B 	c #80746D",
"C 	c #5B4936",
"D 	c #777473",
"E 	c #737271",
"F 	c #5C4833",
"G 	c #81756C",
"H 	c #7E675C",
"I 	c #9B6E5A",
"J 	c #BA7F63",
"K 	c #EFB485",
"L 	c #FFF7EF",
"M 	c #F1B482",
"N 	c #BB8065",
"O 	c #9C6F5A",
"P 	c #7F675B",
"Q 	c #80736B",
"R 	c #767372",
"S 	c #727170",
"T 	c #5C4730",
"U 	c #80746B",
"V 	c #7D665B",
"W 	c #9A6E5A",
"X 	c #B87F63",
"Y 	c #EEAD78",
"Z 	c #FDE1C9",
"` 	c #FDE2C9",
" .	c #F1AC75",
"..	c #B97F64",
"+.	c #7E675B",
"@.	c #7F736B",
"#.	c #757271",
"$.	c #72706F",
"%.	c #5C462E",
"&.	c #7F746B",
"*.	c #79645B",
"=.	c #936B59",
"-.	c #AE7A61",
";.	c #C38A6C",
">.	c #CD9575",
",.	c #CE9A7C",
"'.	c #CE9B7C",
").	c #CD9474",
"!.	c #C48A6C",
"~.	c #AF7A61",
"{.	c #946C5A",
"].	c #7A655B",
"^.	c #7D726A",
"/.	c #5D462E",
"(.	c #747270",
"_.	c #5D452B",
":.	c #7D736C",
"<.	c #75645C",
"[.	c #88695A",
"}.	c #9D725F",
"|.	c #AC7F6A",
"1.	c #B28875",
"2.	c #B38C79",
"3.	c #B48D7B",
"4.	c #AC806B",
"5.	c #9E7360",
"6.	c #89695B",
"7.	c #75645D",
"8.	c #7C726B",
"9.	c #5E462B",
"0.	c #747271",
"a.	c #60472B",
"b.	c #7B726B",
"c.	c #6E635E",
"d.	c #7C665C",
"e.	c #8A6B5D",
"f.	c #957364",
"g.	c #98786A",
"h.	c #9A7B6D",
"i.	c #9A7C6D",
"j.	c #99786A",
"k.	c #957464",
"l.	c #8B6C5E",
"m.	c #7C665B",
"n.	c #79716A",
"o.	c #5F462A",
"p.	c #777472",
"q.	c #777371",
"r.	c #624627",
"s.	c #79726C",
"t.	c #68615E",
"u.	c #70635D",
"v.	c #7A655E",
"w.	c #806A60",
"x.	c #836E65",
"y.	c #836F65",
"z.	c #7A675E",
"A.	c #71635D",
"B.	c #68625E",
"C.	c #78706B",
"D.	c #624626",
"E.	c #7A7573",
"F.	c #736F6C",
"G.	c #6D543B",
"H.	c #7A6C5F",
"I.	c #64605F",
"J.	c #6D635E",
"K.	c #70645F",
"L.	c #716560",
"M.	c #726660",
"N.	c #726661",
"O.	c #69615E",
"P.	c #7A6D61",
"Q.	c #694F34",
"R.	c #76716F",
"S.	c #656463",
"T.	c #89786B",
"U.	c #654A2B",
"V.	c #716961",
"W.	c #6B6663",
"X.	c #6C6663",
"Y.	c #6E6663",
"Z.	c #6E6764",
"`.	c #6E6864",
" +	c #716962",
".+	c #664C2E",
"++	c #867567",
"@+	c #676565",
"#+	c #606060",
"$+	c #756F6C",
"%+	c #8B7463",
"&+	c #664827",
"*+	c #604321",
"=+	c #604221",
"-+	c #664726",
";+	c #897260",
">+	c #78716D",
",+	c #5F5F5F",
"'+	c #676463",
")+	c #807670",
"!+	c #8E7E75",
"~+	c #8F7E75",
"{+	c #8F7F75",
"]+	c #827771",
"^+	c #696664",
"/+	c #5E5E5E",
"(+	c #5D5D5D",
"_+	c #5C5C5C",
":+	c #5B5B5B",
"<+	c #5A5A5A",
"[+	c #595959",
"}+	c #585858",
"|+	c #575757",
". + @ # $ % & * = = = = = = = - ; > , ' # ) ! ~ ",
"{ ] ^ / ( _ : < [ } } } } } } [ | : 1 2 3 4 5 6 ",
"7 8 9 0 a b c d e f f f f f f e g h i j 0 k l m ",
"7 n o p q r s t u v v v v v v u w x y z A B C D ",
"E F G H I J K L L L L L L L L L L M N O P Q F R ",
"S T U V W X Y Z Z Z ` ` ` ` Z Z Z  ...I +.@.T #.",
"$.%.&.*.=.-.;.>.,.'.'.'.'.'.'.,.).!.~.{.].^./.(.",
"$._.:.<.[.}.|.1.2.3.3.3.3.3.3.2.1.4.5.6.7.8.9.0.",
"#.a.b.c.d.e.f.g.h.i.i.i.i.i.i.h.j.k.l.m.c.n.o.p.",
"q.r.s.t.u.v.w., x.x.y.y.y.y.x.x., w.z.A.B.C.D.E.",
"F.G.H.I.t.J.K.L.M.N.N.N.N.N.N.N.L.K.J.O.I.P.Q.R.",
"S.T.U.V.W.X.Y.Z.`.`.`.`.`.`.`.`.Z.Y.X.W. +.+++@+",
"#+$+%+&+*+=+=+=+=+=+=+=+=+=+=+=+=+=+=+=+-+;+>+#+",
",+,+'+)+!+~+~+{+{+{+{+{+{+{+{+{+{+~+~+!+]+^+,+,+",
",+,+,+,+,+,+,+,+,+,+,+,+,+,+,+,+,+,+,+,+,+,+,+,+",
"/+/+/+/+/+/+/+/+/+/+/+/+/+/+/+/+/+/+/+/+/+/+/+/+",
"(+(+(+(+(+(+(+(+(+(+(+(+(+(+(+(+(+(+(+(+(+(+(+(+",
"_+_+_+_+_+_+_+_+_+_+_+_+_+_+_+_+_+_+_+_+_+_+_+_+",
"_+_+_+_+_+_+_+_+_+_+_+_+_+_+_+_+_+_+_+_+_+_+_+_+",
":+:+:+:+:+:+:+:+:+:+:+:+:+:+:+:+:+:+:+:+:+:+:+:+",
"<+<+<+<+<+<+<+<+<+<+<+<+<+<+<+<+<+<+<+<+<+<+<+<+",
"[+[+[+[+[+[+[+[+[+[+[+[+[+[+[+[+[+[+[+[+[+[+[+[+",
"[+[+[+[+[+[+[+[+[+[+[+[+[+[+[+[+[+[+[+[+[+[+[+[+",
"}+}+}+}+}+}+}+}+}+}+}+}+}+}+}+}+}+}+}+}+}+}+}+}+",
"|+|+|+|+|+|+|+|+|+|+|+|+|+|+|+|+|+|+|+|+|+|+|+|+"};
