/* XPM */
static char * hide_inactive_xpm[] = {
"24 25 56 1",
" 	c None",
".	c #737373",
"+	c #505050",
"@	c #777777",
"#	c #696969",
"$	c #767676",
"%	c #747474",
"&	c #727272",
"*	c #4D4D4D",
"=	c #686868",
"-	c #757575",
";	c #4E4E4E",
">	c #717171",
",	c #4B4B4B",
"'	c #676767",
")	c #494949",
"!	c #616161",
"~	c #5F5F5F",
"{	c #626262",
"]	c #4A4A4A",
"^	c #707070",
"/	c #464646",
"(	c #666666",
"_	c #6D6D6D",
":	c #A3A3A3",
"<	c #6F6F6F",
"[	c #474747",
"}	c #444444",
"|	c #656565",
"1	c #8F8F8F",
"2	c #454545",
"3	c #6E6E6E",
"4	c #434343",
"5	c #646464",
"6	c #414141",
"7	c #404040",
"8	c #3F3F3F",
"9	c #636363",
"0	c #3E3E3E",
"a	c #3D3D3D",
"b	c #606060",
"c	c #3C3C3C",
"d	c #333333",
"e	c #323232",
"f	c #3B3B3B",
"g	c #6B6B6B",
"h	c #7C7C7C",
"i	c #7D7D7D",
"j	c #5E5E5E",
"k	c #5D5D5D",
"l	c #5C5C5C",
"m	c #5B5B5B",
"n	c #5A5A5A",
"o	c #595959",
"p	c #585858",
"q	c #575757",
".+@##################$+%",
"&*$==================-;.",
">,-''''''''''''''''''%,&",
">)-'''!~~~~~~~~~~{'''%]&",
"^/-(((_::::::::::<(((.[&",
"<}%|||'1111111111'|||&2>",
"34.555!~~~~~~~~~~!555>4^",
"36.555555555555555555>7^",
"<8&999999999999999999>7>",
"^0&{{{{{{{{{{{{{{{{{{^a.",
"_]#!!!!!!!!!!!!!!!!!!#/<",
"5&a95555555555555555983|",
"b33cdeeeeeeeeeeeeeedfg^b",
"~~5-hiiiiiiiiiiiiiih$|~~",
"~~~~~~~~~~~~~~~~~~~~~~~~",
"jjjjjjjjjjjjjjjjjjjjjjjj",
"kkkkkkkkkkkkkkkkkkkkkkkk",
"llllllllllllllllllllllll",
"llllllllllllllllllllllll",
"mmmmmmmmmmmmmmmmmmmmmmmm",
"nnnnnnnnnnnnnnnnnnnnnnnn",
"oooooooooooooooooooooooo",
"oooooooooooooooooooooooo",
"pppppppppppppppppppppppp",
"qqqqqqqqqqqqqqqqqqqqqqqq"};
