/* XPM */
static char * maximize_toggled_prelight_xpm[] = {
"24 27 351 2",
"  	c None",
". 	c #2E2925",
"+ 	c #402814",
"@ 	c #372C25",
"# 	c #1C120D",
"$ 	c #24150E",
"% 	c #2B180F",
"& 	c #2E1A10",
"* 	c #2B1910",
"= 	c #25160F",
"- 	c #1D130E",
"; 	c #16100D",
"> 	c #120E0C",
", 	c #110E0C",
"' 	c #140F0C",
") 	c #19110D",
"! 	c #20130F",
"~ 	c #28170F",
"{ 	c #2D1910",
"] 	c #2E1910",
"^ 	c #29170F",
"/ 	c #21130D",
"( 	c #3D2D26",
"_ 	c #402613",
": 	c #2D2724",
"< 	c #B7B0AD",
"[ 	c #937762",
"} 	c #BBABA2",
"| 	c #B4A39A",
"1 	c #BAA094",
"2 	c #BE9E8F",
"3 	c #C09D8D",
"4 	c #BF9F90",
"5 	c #BBA194",
"6 	c #B6A39A",
"7 	c #B2A59F",
"8 	c #B0A6A2",
"9 	c #AFA6A2",
"0 	c #B1A6A2",
"a 	c #B4A59E",
"b 	c #B8A197",
"c 	c #BDA092",
"d 	c #BF9E8E",
"e 	c #BD9E90",
"f 	c #B8A196",
"g 	c #BEA89D",
"h 	c #94755F",
"i 	c #B7AFAC",
"j 	c #7E7874",
"k 	c #74563E",
"l 	c #8B766B",
"m 	c #83695D",
"n 	c #916B5B",
"o 	c #9C6E58",
"p 	c #A37059",
"q 	c #A0705A",
"r 	c #99705D",
"s 	c #8E6D5F",
"t 	c #836C61",
"u 	c #7D6B62",
"v 	c #7B6A62",
"w 	c #7E6B62",
"x 	c #876D61",
"y 	c #926F5F",
"z 	c #9C705C",
"A 	c #A2715A",
"B 	c #A16F58",
"C 	c #996D59",
"D 	c #8C6A5B",
"E 	c #927669",
"F 	c #77553C",
"G 	c #7F7673",
"H 	c #74543B",
"I 	c #8D756A",
"J 	c #896A5B",
"K 	c #9A6D57",
"L 	c #AA7156",
"M 	c #BC7753",
"N 	c #E39960",
"O 	c #B37858",
"P 	c #A0735E",
"Q 	c #936F5E",
"R 	c #8B6D5F",
"S 	c #896D5F",
"T 	c #98715E",
"U 	c #AC7658",
"V 	c #E19A60",
"W 	c #BD7954",
"X 	c #B17458",
"Y 	c #A47057",
"Z 	c #946B58",
"` 	c #957666",
" .	c #785439",
"..	c #807671",
"+.	c #7E7673",
"@.	c #745239",
"#.	c #8D7568",
"$.	c #8A6A5B",
"%.	c #9D6D57",
"&.	c #B57452",
"*.	c #F2B888",
"=.	c #FFFFFF",
"-.	c #F1B98A",
";.	c #BE7E59",
">.	c #A7755E",
",.	c #9F725D",
"'.	c #9D715D",
").	c #A2735D",
"!.	c #B87C59",
"~.	c #F0B88B",
"{.	c #F3B988",
"].	c #BD7854",
"^.	c #AA7157",
"/.	c #966B58",
"(.	c #967566",
"_.	c #785137",
":.	c #807470",
"<.	c #7D7672",
"[.	c #725036",
"}.	c #8B756A",
"|.	c #86695C",
"1.	c #996E59",
"2.	c #AD745A",
"3.	c #DD9564",
"4.	c #FCEBDC",
"5.	c #F5C39D",
"6.	c #CB855B",
"7.	c #B67B60",
"8.	c #B47A5F",
"9.	c #C7845A",
"0.	c #F4C49D",
"a.	c #FDECDC",
"b.	c #E09765",
"c.	c #B8785B",
"d.	c #A67259",
"e.	c #926B5A",
"f.	c #937567",
"g.	c #765135",
"h.	c #7E7571",
"i.	c #7C7572",
"j.	c #6E4F33",
"k.	c #86756B",
"l.	c #7E685D",
"m.	c #8E6B5B",
"n.	c #A1725C",
"o.	c #B4785D",
"p.	c #DB9362",
"q.	c #FBE3CF",
"r.	c #F9D0AF",
"s.	c #D98E5E",
"t.	c #D88D5E",
"u.	c #F8D0AE",
"v.	c #FCE4CF",
"w.	c #DE9563",
"x.	c #BD7D5F",
"y.	c #AD765C",
"z.	c #9A6F5B",
"A.	c #886A5C",
"B.	c #8D7669",
"C.	c #714E32",
"D.	c #7C7471",
"E.	c #7A7572",
"F.	c #6B4C31",
"G.	c #82756C",
"H.	c #75665F",
"I.	c #81695D",
"J.	c #916D5C",
"K.	c #A3725C",
"L.	c #D68F62",
"M.	c #FADAC1",
"N.	c #FBDCC0",
"O.	c #DB9162",
"P.	c #BE7F61",
"Q.	c #AE775F",
"R.	c #9C715C",
"S.	c #8B6C5D",
"T.	c #7C675E",
"U.	c #87756B",
"V.	c #6C4B2E",
"W.	c #7A7370",
"X.	c #797471",
"Y.	c #694B2F",
"Z.	c #7E746D",
"`.	c #6D6460",
" +	c #81685D",
".+	c #906C5D",
"++	c #A2745E",
"@+	c #B37A60",
"#+	c #D28B60",
"$+	c #F8D2B1",
"%+	c #F8D1B1",
"&+	c #D88D61",
"*+	c #BD7F63",
"=+	c #AC775F",
"-+	c #9B715D",
";+	c #8A6B5C",
">+	c #7C675D",
",+	c #71655F",
"'+	c #81746C",
")+	c #68492D",
"!+	c #787370",
"~+	c #787472",
"{+	c #66492C",
"]+	c #7C746E",
"^+	c #686361",
"/+	c #81695E",
"(+	c #8F6D5E",
"_+	c #B17A60",
":+	c #CB865F",
"<+	c #F5C6A0",
"[+	c #F5C6A1",
"}+	c #D18960",
"|+	c #BA7E62",
"1+	c #AB7760",
"2+	c #9A715E",
"3+	c #896B5D",
"4+	c #7B675E",
"5+	c #6B6461",
"6+	c #7E736E",
"7+	c #65482A",
"8+	c #787371",
"9+	c #7B7573",
"0+	c #65492A",
"a+	c #7A726E",
"b+	c #656261",
"c+	c #676260",
"d+	c #6C6460",
"e+	c #73655E",
"f+	c #7E675D",
"g+	c #8B6B5C",
"h+	c #9B705C",
"i+	c #A9765E",
"j+	c #BC7D5B",
"k+	c #BE7E5B",
"l+	c #B0795F",
"m+	c #A5755D",
"n+	c #956E5D",
"o+	c #876A5C",
"p+	c #79665E",
"q+	c #70645F",
"r+	c #6A6360",
"s+	c #666261",
"t+	c #654729",
"u+	c #624525",
"v+	c #7D746F",
"w+	c #626161",
"x+	c #636160",
"y+	c #666260",
"z+	c #6A625F",
"A+	c #71645E",
"B+	c #7B665C",
"C+	c #86695B",
"D+	c #926C5B",
"E+	c #9C705B",
"F+	c #986E5B",
"G+	c #82675B",
"H+	c #77655D",
"I+	c #6E645E",
"J+	c #68625F",
"K+	c #636261",
"L+	c #7E756D",
"M+	c #634627",
"N+	c #7A7471",
"O+	c #75706D",
"P+	c #6C563E",
"Q+	c #7B6B5C",
"R+	c #616161",
"S+	c #616060",
"T+	c #62605F",
"U+	c #64615F",
"V+	c #69625E",
"W+	c #6E625D",
"X+	c #76645C",
"Y+	c #7D655A",
"Z+	c #836659",
"`+	c #846859",
" @	c #816659",
".@	c #7B645B",
"+@	c #72635D",
"@@	c #6C625E",
"#@	c #67615F",
"$@	c #646160",
"%@	c #626160",
"&@	c #796857",
"*@	c #6F5A45",
"=@	c #736E6C",
"-@	c #646363",
";@	c #8B796D",
">@	c #5B3F1E",
",@	c #6C655D",
"'@	c #696867",
")@	c #686766",
"!@	c #696765",
"~@	c #6A6765",
"{@	c #6D6764",
"]@	c #716762",
"^@	c #756761",
"/@	c #796861",
"(@	c #796960",
"_@	c #776861",
":@	c #736862",
"<@	c #6F6763",
"[@	c #6C6864",
"}@	c #696766",
"|@	c #686765",
"1@	c #6C645B",
"2@	c #5B3D1A",
"3@	c #8C7C71",
"4@	c #636262",
"5@	c #606060",
"6@	c #766F6C",
"7@	c #8E7A6C",
"8@	c #644829",
"9@	c #583B18",
"0@	c #583B19",
"a@	c #593B19",
"b@	c #593C19",
"c@	c #5A3D1A",
"d@	c #5C3C19",
"e@	c #5F3D1A",
"f@	c #603D1A",
"g@	c #603E1A",
"h@	c #5E3D19",
"i@	c #5C3C1A",
"j@	c #5A3C19",
"k@	c #583A17",
"l@	c #64492C",
"m@	c #8E7B6E",
"n@	c #746E6A",
"o@	c #5F5F5F",
"p@	c #6A6664",
"q@	c #837771",
"r@	c #8C7E76",
"s@	c #8D7E76",
"t@	c #8D7F76",
"u@	c #8D7E75",
"v@	c #8E7D75",
"w@	c #8E7E76",
"x@	c #8D7D75",
"y@	c #827771",
"z@	c #696664",
"A@	c #5F5E5E",
"B@	c #5F5F5E",
"C@	c #5E5E5E",
"D@	c #5D5D5D",
"E@	c #5C5C5C",
"F@	c #5B5B5B",
"G@	c #5A5A5A",
"H@	c #595959",
"I@	c #585858",
"J@	c #575757",
". + @ # $ % & * = - ; > , ' ) ! ~ { ] ^ / ( _ : ",
"< [ } | 1 2 3 4 5 6 7 8 9 0 a b c d 3 e f g h i ",
"j k l m n o p q r s t u v w x y z A B C D E F G ",
"G H I J K L M N O P Q R S s T U V W X Y Z `  ...",
"+.@.#.$.%.&.*.=.-.;.>.,.'.).!.~.=.{.].^./.(._.:.",
"<.[.}.|.1.2.3.4.=.5.6.7.8.9.0.=.a.b.c.d.e.f.g.h.",
"i.j.k.l.m.n.o.p.q.=.r.s.t.u.=.v.w.x.y.z.A.B.C.D.",
"E.F.G.H.I.J.K.8.L.M.=.N.N.=.M.O.P.Q.R.S.T.U.V.W.",
"X.Y.Z.`.H. +.+++@+#+$+=.=.%+&+*+=+-+;+>+,+'+)+!+",
"~+{+]+^+`.H./+(+P _+:+<+[+}+|+1+2+3+4+,+5+6+7+8+",
"9+0+a+b+c+d+e+f+g+h+i+j+k+l+m+n+o+p+q+r+s+]+t+X.",
"i.u+v+w+x+y+z+A+B+C+D+z.E+F+m.G+H+I+J+b+K+L+M+N+",
"O+P+Q+R+S+T+U+V+W+X+Y+Z+`+ @.@+@@@#@$@%@w+&@*@=@",
"-@;@>@,@'@)@!@~@{@]@^@/@(@_@:@<@[@}@|@'@1@2@3@4@",
"5@6@7@8@9@0@a@b@c@d@e@f@g@g@h@i@j@b@a@k@l@m@n@5@",
"o@o@p@q@r@r@r@s@t@u@v@v@v@w@x@u@s@r@r@r@y@z@o@o@",
"o@o@o@o@o@o@o@o@o@A@A@A@B@A@A@A@o@o@o@o@o@o@o@o@",
"C@C@C@C@C@C@C@C@C@C@C@C@C@C@C@C@C@C@C@C@C@C@C@C@",
"D@D@D@D@D@D@D@D@D@D@D@D@D@D@D@D@D@D@D@D@D@D@D@D@",
"E@E@E@E@E@E@E@E@E@E@E@E@E@E@E@E@E@E@E@E@E@E@E@E@",
"E@E@E@E@E@E@E@E@E@E@E@E@E@E@E@E@E@E@E@E@E@E@E@E@",
"F@F@F@F@F@F@F@F@F@F@F@F@F@F@F@F@F@F@F@F@F@F@F@F@",
"G@G@G@G@G@G@G@G@G@G@G@G@G@G@G@G@G@G@G@G@G@G@G@G@",
"H@H@H@H@H@H@H@H@H@H@H@H@H@H@H@H@H@H@H@H@H@H@H@H@",
"H@H@H@H@H@H@H@H@H@H@H@H@H@H@H@H@H@H@H@H@H@H@H@H@",
"I@I@I@I@I@I@I@I@I@I@I@I@I@I@I@I@I@I@I@I@I@I@I@I@",
"J@J@J@J@J@J@J@J@J@J@J@J@J@J@J@J@J@J@J@J@J@J@J@J@"};
