/* XPM */
static char * maximize_prelight_xpm[] = {
"24 25 212 2",
"  	c None",
". 	c #7D7877",
"+ 	c #6D5540",
"@ 	c #7E7873",
"# 	c #696968",
"$ 	c #6B6968",
"% 	c #6E6967",
"& 	c #736A66",
"* 	c #7B6B63",
"= 	c #876E63",
"- 	c #947162",
"; 	c #A07662",
"> 	c #A77863",
", 	c #7F7874",
"' 	c #6C533E",
") 	c #7B7775",
"! 	c #7C7776",
"~ 	c #6C533C",
"{ 	c #7E7772",
"] 	c #6A6867",
"^ 	c #6D6866",
"/ 	c #736964",
"( 	c #7C6B63",
"_ 	c #896E62",
": 	c #987362",
"< 	c #A97963",
"[ 	c #B77F65",
"} 	c #DC9664",
"| 	c #807872",
"1 	c #6B513B",
"2 	c #7A7675",
"3 	c #6C513A",
"4 	c #7E7671",
"5 	c #6C6664",
"6 	c #726762",
"7 	c #7C6A61",
"8 	c #896D61",
"9 	c #9A7260",
"0 	c #AC7A63",
"a 	c #BE8368",
"b 	c #E69D66",
"c 	c #FDEDE0",
"d 	c #BE8367",
"e 	c #896D60",
"f 	c #807772",
"g 	c #6A5039",
"h 	c #7A7574",
"i 	c #7B7675",
"j 	c #6B5037",
"k 	c #81766F",
"l 	c #726863",
"m 	c #8A6D5F",
"n 	c #9C7361",
"o 	c #AE7A63",
"p 	c #C08366",
"q 	c #EBA268",
"r 	c #FEF4EC",
"s 	c #FFFFFF",
"t 	c #7C6961",
"u 	c #837770",
"v 	c #694E36",
"w 	c #7A7573",
"x 	c #7B7673",
"y 	c #6B4E34",
"z 	c #84756E",
"A 	c #7A685F",
"B 	c #886B5D",
"C 	c #9B715E",
"D 	c #AE7860",
"E 	c #C18062",
"F 	c #EEA66E",
"G 	c #FFFAF6",
"H 	c #FFFDFC",
"I 	c #F2B27F",
"J 	c #C18061",
"K 	c #86766E",
"L 	c #694C33",
"M 	c #7A7572",
"N 	c #7B7572",
"O 	c #6A4C30",
"P 	c #88756B",
"Q 	c #82685C",
"R 	c #956D5A",
"S 	c #AA755D",
"T 	c #C17D5C",
"U 	c #F0AC77",
"V 	c #FFFBF7",
"W 	c #EBA772",
"X 	c #C28162",
"Y 	c #AA755C",
"Z 	c #89766C",
"` 	c #684A2F",
" .	c #7A7470",
"..	c #7B7471",
"+.	c #694B2D",
"@.	c #8B7569",
"#.	c #89695A",
"$.	c #9E6D57",
"%.	c #B77656",
"&.	c #F2B27D",
"*.	c #E29D6A",
"=.	c #AF7960",
"-.	c #A7765F",
";.	c #A7765E",
">.	c #AF7860",
",.	c #8C756A",
"'.	c #68492B",
").	c #797370",
"!.	c #68492A",
"~.	c #8C7568",
"{.	c #8A6958",
"].	c #A06D56",
"^.	c #B27458",
"/.	c #E19B65",
"(.	c #FBDFC6",
"_.	c #D99664",
":.	c #A5755E",
"<.	c #976F5D",
"[.	c #8F6D5D",
"}.	c #E19A65",
"|.	c #8E7569",
"1.	c #67482A",
"2.	c #7A7270",
"3.	c #7D7571",
"4.	c #684829",
"5.	c #897468",
"6.	c #856658",
"7.	c #976A56",
"8.	c #A56F55",
"9.	c #AB7257",
"0.	c #BA7952",
"a.	c #9D705C",
"b.	c #8E6C5D",
"c.	c #7B675D",
"d.	c #8E6C5C",
"e.	c #AB7157",
"f.	c #8A7469",
"g.	c #664828",
"h.	c #7C7470",
"i.	c #7E7571",
"j.	c #634524",
"k.	c #87746A",
"l.	c #7B6459",
"m.	c #876656",
"n.	c #916956",
"o.	c #956A57",
"p.	c #906958",
"q.	c #86695A",
"r.	c #7B655C",
"s.	c #72645D",
"t.	c #6D635E",
"u.	c #887569",
"v.	c #644626",
"w.	c #76706D",
"x.	c #6E563E",
"y.	c #806B5B",
"z.	c #6F615B",
"A.	c #776258",
"B.	c #7D6458",
"C.	c #7F6458",
"D.	c #75635B",
"E.	c #6E625D",
"F.	c #69625E",
"G.	c #65615E",
"H.	c #70625C",
"I.	c #7E6855",
"J.	c #715A45",
"K.	c #756F6B",
"L.	c #656362",
"M.	c #8C7A6C",
"N.	c #5C3F1D",
"O.	c #72655B",
"P.	c #736863",
"Q.	c #756861",
"R.	c #736862",
"S.	c #706763",
"T.	c #6C6764",
"U.	c #6A6765",
"V.	c #696765",
"W.	c #736864",
"X.	c #716459",
"Y.	c #5C3D1A",
"Z.	c #8D7B70",
"`.	c #646262",
" +	c #606060",
".+	c #776F6B",
"++	c #8F796B",
"@+	c #654729",
"#+	c #593B17",
"$+	c #593C18",
"%+	c #593B19",
"&+	c #583B19",
"*+	c #583B17",
"=+	c #65492B",
"-+	c #8F7A6E",
";+	c #756D6A",
">+	c #5F5F5F",
",+	c #6B6664",
"'+	c #837771",
")+	c #8D7E76",
"!+	c #8E7E76",
"~+	c #8C7E76",
"{+	c #696564",
"]+	c #5F5E5E",
"^+	c #5E5E5E",
"/+	c #5D5D5D",
"(+	c #5C5C5C",
"_+	c #5B5B5B",
":+	c #5A5A5A",
"<+	c #595959",
"[+	c #585858",
"}+	c #575757",
". + @ # $ % & * = - ; > > ; - = * & % $ # , ' ) ",
"! ~ { ] ^ / ( _ : < [ } } [ < : _ ( / ^ ] | 1 2 ",
") 3 4 5 6 7 8 9 0 a b c c b d 0 9 e 7 6 5 f g h ",
"i j k l 7 m n o p q r s s r q p o n m t l u v w ",
"x y z A B C D E F G H I I H G F J D C B A K L M ",
"N O P Q R S T U H V W X X W V H U T Y R Q Z `  .",
"..+.@.#.$.%.&.s r *.=.-.;.>.*.r s &.%.$.#.,.'.).",
"..!.~.{.].^./.(._.:.<.[.[.<.:._.(.}.^.].{.|.1.2.",
"3.4.5.6.7.8.9.0.a.b.Q c.c.Q d.a.0.e.8.7.6.f.g.h.",
"i.j.k.l.m.n.o.p.q.r.s.t.t.s.r.q.p.o.n.m.l.u.v.h.",
"w.x.y.z.A.B.C.l.D.E.F.G.G.F.E.D.l.C.B.A.H.I.J.K.",
"L.M.N.O.P.Q.Q.R.S.T.U.V.V.U.T.S.R.Q.Q.W.X.Y.Z.`.",
" +.+++@+#+$+$+$+%+%+&+&+&+&+%+%+$+$+$+*+=+-+;+ +",
">+>+,+'+)+!+!+!+)+)+~+~+~+~+)+)+!+!+!+)+'+{+>+>+",
">+>+>+>+]+]+]+]+>+>+>+>+>+>+>+>+]+]+]+]+>+>+>+>+",
"^+^+^+^+^+^+^+^+^+^+^+^+^+^+^+^+^+^+^+^+^+^+^+^+",
"/+/+/+/+/+/+/+/+/+/+/+/+/+/+/+/+/+/+/+/+/+/+/+/+",
"(+(+(+(+(+(+(+(+(+(+(+(+(+(+(+(+(+(+(+(+(+(+(+(+",
"(+(+(+(+(+(+(+(+(+(+(+(+(+(+(+(+(+(+(+(+(+(+(+(+",
"_+_+_+_+_+_+_+_+_+_+_+_+_+_+_+_+_+_+_+_+_+_+_+_+",
":+:+:+:+:+:+:+:+:+:+:+:+:+:+:+:+:+:+:+:+:+:+:+:+",
"<+<+<+<+<+<+<+<+<+<+<+<+<+<+<+<+<+<+<+<+<+<+<+<+",
"<+<+<+<+<+<+<+<+<+<+<+<+<+<+<+<+<+<+<+<+<+<+<+<+",
"[+[+[+[+[+[+[+[+[+[+[+[+[+[+[+[+[+[+[+[+[+[+[+[+",
"}+}+}+}+}+}+}+}+}+}+}+}+}+}+}+}+}+}+}+}+}+}+}+}+"};
