/* XPM */
static char * maximize_active_xpm[] = {
"24 25 72 1",
" 	c None",
".	c #7B7B7B",
"+	c #454545",
"@	c #7F7F7F",
"#	c #696969",
"$	c #818181",
"%	c #424242",
"&	c #7A7A7A",
"*	c #414141",
"=	c #686868",
"-	c #5F5F5F",
";	c #808080",
">	c #3E3E3E",
",	c #797979",
"'	c #7E7E7E",
")	c #676767",
"!	c #5E5E5E",
"~	c #C8C8C8",
"{	c #3C3C3C",
"]	c #787878",
"^	c #666666",
"/	c #606060",
"(	c #D3D3D3",
"_	c #E4E4E4",
":	c #3A3A3A",
"<	c #393939",
"[	c #7D7D7D",
"}	c #636363",
"|	c #646464",
"1	c #DCDCDC",
"2	c #E1E1E1",
"3	c #737373",
"4	c #363636",
"5	c #7C7C7C",
"6	c #656565",
"7	c #6D6D6D",
"8	c #626262",
"9	c #343434",
"0	c #777777",
"a	c #333333",
"b	c #E3E3E3",
"c	c #D2D2D2",
"d	c #313131",
"e	c #767676",
"f	c #B1B1B1",
"g	c #616161",
"h	c #2E2E2E",
"i	c #2F2F2F",
"j	c #585858",
"k	c #2D2D2D",
"l	c #2B2B2B",
"m	c #2C2C2C",
"n	c #464646",
"o	c #6B6B6B",
"p	c #4F4F4F",
"q	c #747474",
"r	c #838383",
"s	c #1F1F1F",
"t	c #5D5D5D",
"u	c #1B1B1B",
"v	c #878787",
"w	c #1A1A1A",
"x	c #191919",
"y	c #898989",
"z	c #919191",
"A	c #858585",
"B	c #6A6A6A",
"C	c #5C5C5C",
"D	c #5B5B5B",
"E	c #5A5A5A",
"F	c #595959",
"G	c #575757",
".+@##################$%&",
"&*@========--========;>,",
"&>')))))))!~~!)))))))@{]",
"&{')))))^/(__(/^)))))@:,",
",<[^^^^}|123321|}^^^^'4]",
"]45666/721#88#127/666[90",
"]a.||!3bc|}||}|cb3!||5de",
"]d.|||8fg||||||gf8|||5h0",
".i&}}}}j}}}}}}}}j}}}}5k&",
"[l[888888888888888888[m.",
"enogggggggggggggggggg^pq",
"6rs/#))))))))))))))#tuv|",
"/]vdwuuuuuuuuuuuuuuxaye/",
"--ovzzzzzzzzzzzzzzzzAB--",
"------------------------",
"!!!!!!!!!!!!!!!!!!!!!!!!",
"tttttttttttttttttttttttt",
"CCCCCCCCCCCCCCCCCCCCCCCC",
"CCCCCCCCCCCCCCCCCCCCCCCC",
"DDDDDDDDDDDDDDDDDDDDDDDD",
"EEEEEEEEEEEEEEEEEEEEEEEE",
"FFFFFFFFFFFFFFFFFFFFFFFF",
"FFFFFFFFFFFFFFFFFFFFFFFF",
"jjjjjjjjjjjjjjjjjjjjjjjj",
"GGGGGGGGGGGGGGGGGGGGGGGG"};
