/* XPM */
static char * maximize_inactive_xpm[] = {
"24 25 63 1",
" 	c None",
".	c #747474",
"+	c #505050",
"@	c #767676",
"#	c #696969",
"$	c #777777",
"%	c #4E4E4E",
"&	c #737373",
"*	c #4D4D4D",
"=	c #757575",
"-	c #686868",
";	c #636363",
">	c #4B4B4B",
",	c #727272",
"'	c #676767",
")	c #626262",
"!	c #979797",
"~	c #494949",
"{	c #717171",
"]	c #666666",
"^	c #9D9D9D",
"/	c #A5A5A5",
"(	c #484848",
"_	c #474747",
":	c #646464",
"<	c #656565",
"[	c #A0A0A0",
"}	c #A4A4A4",
"|	c #6C6C6C",
"1	c #454545",
"2	c #707070",
"3	c #A3A3A3",
"4	c #434343",
"5	c #424242",
"6	c #616161",
"7	c #6B6B6B",
"8	c #9C9C9C",
"9	c #414141",
"0	c #6F6F6F",
"a	c #404040",
"b	c #8B8B8B",
"c	c #3F3F3F",
"d	c #5D5D5D",
"e	c #3E3E3E",
"f	c #3C3C3C",
"g	c #3D3D3D",
"h	c #6E6E6E",
"i	c #525252",
"j	c #353535",
"k	c #5F5F5F",
"l	c #333333",
"m	c #606060",
"n	c #323232",
"o	c #313131",
"p	c #6D6D6D",
"q	c #7D7D7D",
"r	c #5E5E5E",
"s	c #5C5C5C",
"t	c #5B5B5B",
"u	c #5A5A5A",
"v	c #595959",
"w	c #585858",
"x	c #575757",
".+@##################$%&",
"&*=--------;;--------@>,",
",>.''''''')!!)'''''''=~{",
",~.'''''];^//^;]'''''=({",
",_&]]]]:<[}||}[<:]]]]=12",
"{1,<<<)-3[];;][3-)<<<.42",
"25{::6738::::::8376::&90",
"2a{:::;b)::::::)b;:::&c0",
"{a{;;;;d;;;;;;;;d;;;;,e{",
",f,)))))))))))))))))),g{",
"h*<6666666666666666666i|",
";&jk<::::::::::::::<dl@)",
"mh.cnlllllllllllllloa@pm",
"kk]@qqqqqqqqqqqqqqqq@<kk",
"kkkkkkkkkkkkkkkkkkkkkkkk",
"rrrrrrrrrrrrrrrrrrrrrrrr",
"dddddddddddddddddddddddd",
"ssssssssssssssssssssssss",
"ssssssssssssssssssssssss",
"tttttttttttttttttttttttt",
"uuuuuuuuuuuuuuuuuuuuuuuu",
"vvvvvvvvvvvvvvvvvvvvvvvv",
"vvvvvvvvvvvvvvvvvvvvvvvv",
"wwwwwwwwwwwwwwwwwwwwwwww",
"xxxxxxxxxxxxxxxxxxxxxxxx"};
