/* XPM */
static char * maximize_pressed_xpm[] = {
"24 25 97 2",
"  	c None",
". 	c #7B7B7B",
"+ 	c #463B34",
"@ 	c #55514F",
"# 	c #483D37",
"$ 	c #7A7A7A",
"% 	c #443831",
"& 	c #5B4C44",
"* 	c #5C4B44",
"= 	c #473A33",
"- 	c #797979",
"; 	c #43362D",
"> 	c #54514F",
", 	c #624B3F",
"' 	c #B86D4B",
") 	c #463931",
"! 	c #787878",
"~ 	c #43352B",
"{ 	c #6C4C3F",
"] 	c #BF7959",
"^ 	c #FDF9F7",
"/ 	c #45372D",
"( 	c #423327",
"_ 	c #774F3D",
": 	c #C8886B",
"< 	c #FEFBFA",
"[ 	c #E6C5B6",
"} 	c #433529",
"| 	c #423125",
"1 	c #81513C",
"2 	c #D19A81",
"3 	c #FFFDFC",
"4 	c #DBB09C",
"5 	c #8D563D",
"6 	c #433327",
"7 	c #777777",
"8 	c #423022",
"9 	c #8D533A",
"0 	c #DBAE99",
"a 	c #D3A088",
"b 	c #82533D",
"c 	c #443224",
"d 	c #767676",
"e 	c #412D1F",
"f 	c #594A42",
"g 	c #B96944",
"h 	c #FEFBF9",
"i 	c #CB8E73",
"j 	c #78503E",
"k 	c #443022",
"l 	c #422E1E",
"m 	c #54504F",
"n 	c #6A4E41",
"o 	c #AC5933",
"p 	c #6E4E3F",
"q 	c #453020",
"r 	c #7A7979",
"s 	c #7D7C7C",
"t 	c #473120",
"u 	c #534E4D",
"v 	c #524E4A",
"w 	c #4A3526",
"x 	c #5F5046",
"y 	c #4C4139",
"z 	c #54504E",
"A 	c #4B3E36",
"B 	c #63574D",
"C 	c #747474",
"D 	c #656565",
"E 	c #898480",
"F 	c #3E2716",
"G 	c #4F4842",
"H 	c #4E4540",
"I 	c #3E2514",
"J 	c #8B8785",
"K 	c #646464",
"L 	c #606060",
"M 	c #8D8884",
"N 	c #523E2F",
"O 	c #402615",
"P 	c #402716",
"Q 	c #523F31",
"R 	c #8E8A86",
"S 	c #5F5F5F",
"T 	c #6B6B6B",
"U 	c #878686",
"V 	c #908F8E",
"W 	c #858585",
"X 	c #6A6A6A",
"Y 	c #5E5E5E",
"Z 	c #5D5D5D",
"` 	c #5C5C5C",
" .	c #5B5B5B",
"..	c #5A5A5A",
"+.	c #595959",
"@.	c #585858",
"#.	c #575757",
". + @ @ @ @ @ @ @ @ @ @ @ @ @ @ @ @ @ @ @ @ # $ ",
"$ % @ @ @ @ @ @ @ @ @ & * @ @ @ @ @ @ @ @ @ = - ",
"$ ; > > > > > > > > , ' ' , > > > > > > > > ) ! ",
"$ ~ > > > > > > > { ] ^ ^ ] { > > > > > > > / - ",
"- ( > > > > > > _ : < [ [ < : _ > > > > > > } ! ",
"! | > > > > > 1 2 3 4 5 5 4 3 2 1 > > > > > 6 7 ",
"! 8 > > > > 9 0 3 a b > > b a 3 0 9 > > > > c d ",
"! e > > > f g h i j > > > > j i h g f > > > k 7 ",
". l m m m m n o p m m m m m m p o n m m m m q r ",
"s t u m m m m m m m m m m m m m m m m m m v w . ",
"d x y z z z z z z z z z z z z z z z z z z A B C ",
"D E F G z z z z z z z z z z z z z z z z H I J K ",
"L ! M N O P P P P P P P P P P P P P P O Q R d L ",
"S S T U V V V V V V V V V V V V V V V V W X S S ",
"S S S S S S S S S S S S S S S S S S S S S S S S ",
"Y Y Y Y Y Y Y Y Y Y Y Y Y Y Y Y Y Y Y Y Y Y Y Y ",
"Z Z Z Z Z Z Z Z Z Z Z Z Z Z Z Z Z Z Z Z Z Z Z Z ",
"` ` ` ` ` ` ` ` ` ` ` ` ` ` ` ` ` ` ` ` ` ` ` ` ",
"` ` ` ` ` ` ` ` ` ` ` ` ` ` ` ` ` ` ` ` ` ` ` ` ",
" . . . . . . . . . . . . . . . . . . . . . . . .",
"................................................",
"+.+.+.+.+.+.+.+.+.+.+.+.+.+.+.+.+.+.+.+.+.+.+.+.",
"+.+.+.+.+.+.+.+.+.+.+.+.+.+.+.+.+.+.+.+.+.+.+.+.",
"@.@.@.@.@.@.@.@.@.@.@.@.@.@.@.@.@.@.@.@.@.@.@.@.",
"#.#.#.#.#.#.#.#.#.#.#.#.#.#.#.#.#.#.#.#.#.#.#.#."};
