/* XPM */
static char * separator_xpm[] = {
"1 25 13 1",
" 	c None",
".	c #414141",
"+	c #404040",
"@	c #3F3F3F",
"#	c #3E3E3E",
"$	c #3D3D3D",
"%	c #3C3C3C",
"&	c #3B3B3B",
"*	c #3A3A3A",
"=	c #393939",
"-	c #383838",
";	c #373737",
">	c #363636",
".",
".",
"+",
"+",
"+",
"@",
"#",
"#",
"$",
"$",
"$",
"$",
"%",
"&",
"&",
"*",
"*",
"=",
"=",
"=",
"-",
";",
";",
";",
">"};
