/* XPM */
static char * maximize_toggled_active_xpm[] = {
"24 27 80 1",
" 	c None",
".	c #2A2A2A",
"+	c #191919",
"@	c #313131",
"#	c #0C0C0C",
"$	c #343434",
"%	c #161616",
"&	c #282828",
"*	c #B5B5B5",
"=	c #686868",
"-	c #B7B7B7",
";	c #ABABAB",
">	c #B8B8B8",
",	c #666666",
"'	c #B4B4B4",
")	c #7B7B7B",
"!	c #454545",
"~	c #7F7F7F",
"{	c #696969",
"]	c #818181",
"^	c #424242",
"/	c #7A7A7A",
"(	c #414141",
"_	c #606060",
":	c #5E5E5E",
"<	c #626262",
"[	c #808080",
"}	c #3E3E3E",
"|	c #797979",
"1	c #7E7E7E",
"2	c #676767",
"3	c #616161",
"4	c #7D7D7D",
"5	c #E4E4E4",
"6	c #5F5F5F",
"7	c #3C3C3C",
"8	c #787878",
"9	c #636363",
"0	c #C6C6C6",
"a	c #8E8E8E",
"b	c #3A3A3A",
"c	c #393939",
"d	c #BBBBBB",
"e	c #9D9D9D",
"f	c #5D5D5D",
"g	c #363636",
"h	c #7C7C7C",
"i	c #656565",
"j	c #ACACAC",
"k	c #E3E3E3",
"l	c #ADADAD",
"m	c #777777",
"n	c #333333",
"o	c #646464",
"p	c #9F9F9F",
"q	c #767676",
"r	c #919191",
"s	c #2E2E2E",
"t	c #2F2F2F",
"u	c #2D2D2D",
"v	c #2B2B2B",
"w	c #2C2C2C",
"x	c #464646",
"y	c #6B6B6B",
"z	c #4F4F4F",
"A	c #747474",
"B	c #838383",
"C	c #1F1F1F",
"D	c #1B1B1B",
"E	c #878787",
"F	c #1A1A1A",
"G	c #898989",
"H	c #858585",
"I	c #6A6A6A",
"J	c #5C5C5C",
"K	c #5B5B5B",
"L	c #5A5A5A",
"M	c #595959",
"N	c #585858",
"O	c #575757",
".+@##################$%&",
"*=-;;;;;;;;;;;;;;;;;;>,'",
")!~{{{{{{{{{{{{{{{{{{]^/",
"/(~===_:<======<:_===[}|",
"/}122345~622226~54322~78",
"/71222905a6226a509222~b|",
"|c4,,,,3d5effe5d3,,,,1g8",
"8ghiiiii6jkllkj6iiiii4$m",
"8n)oooooofpkkpfooooooh@q",
"8@)ooooooofrrfooooooohsm",
")t/99999999ff99999999hu/",
"4v4<<<<<<<<<<<<<<<<<<4w)",
"qxy333333333333333333,zA",
"iBC_{22222222222222{fDEo",
"_8E@FDDDDDDDDDDDDDD+nGq_",
"66yErrrrrrrrrrrrrrrrHI66",
"666666666666666666666666",
"::::::::::::::::::::::::",
"ffffffffffffffffffffffff",
"JJJJJJJJJJJJJJJJJJJJJJJJ",
"JJJJJJJJJJJJJJJJJJJJJJJJ",
"KKKKKKKKKKKKKKKKKKKKKKKK",
"LLLLLLLLLLLLLLLLLLLLLLLL",
"MMMMMMMMMMMMMMMMMMMMMMMM",
"MMMMMMMMMMMMMMMMMMMMMMMM",
"NNNNNNNNNNNNNNNNNNNNNNNN",
"OOOOOOOOOOOOOOOOOOOOOOOO"};
