/* XPM */
static char * maximize_inactive_xpm[] = {
"24 27 69 1",
" 	c None",
".	c #333333",
"+	c #B1B1B1",
"@	c #7E7E7E",
"#	c #B2B2B2",
"$	c #ABABAB",
"%	c #B3B3B3",
"&	c #7D7D7D",
"*	c #B0B0B0",
"=	c #747474",
"-	c #505050",
";	c #767676",
">	c #696969",
",	c #777777",
"'	c #4E4E4E",
")	c #737373",
"!	c #4D4D4D",
"~	c #757575",
"{	c #686868",
"]	c #636363",
"^	c #4B4B4B",
"/	c #727272",
"(	c #676767",
"_	c #626262",
":	c #979797",
"<	c #494949",
"[	c #717171",
"}	c #666666",
"|	c #9D9D9D",
"1	c #A5A5A5",
"2	c #484848",
"3	c #474747",
"4	c #646464",
"5	c #656565",
"6	c #A0A0A0",
"7	c #A4A4A4",
"8	c #6C6C6C",
"9	c #454545",
"0	c #707070",
"a	c #A3A3A3",
"b	c #434343",
"c	c #424242",
"d	c #616161",
"e	c #6B6B6B",
"f	c #9C9C9C",
"g	c #414141",
"h	c #6F6F6F",
"i	c #404040",
"j	c #8B8B8B",
"k	c #3F3F3F",
"l	c #5D5D5D",
"m	c #3E3E3E",
"n	c #3C3C3C",
"o	c #3D3D3D",
"p	c #6E6E6E",
"q	c #525252",
"r	c #353535",
"s	c #5F5F5F",
"t	c #606060",
"u	c #323232",
"v	c #313131",
"w	c #6D6D6D",
"x	c #5E5E5E",
"y	c #5C5C5C",
"z	c #5B5B5B",
"A	c #5A5A5A",
"B	c #595959",
"C	c #585858",
"D	c #575757",
"........................",
"+@#$$$$$$$$$$$$$$$$$$%&*",
"=-;>>>>>>>>>>>>>>>>>>,')",
")!~{{{{{{{{]]{{{{{{{{;^/",
"/^=(((((((_::_(((((((~<[",
"/<=(((((}]|11|]}(((((~2[",
"/3)}}}}4567887654}}}}~90",
"[9/555_{a6}]]}6a{_555=b0",
"0c[44deaf444444faed44)gh",
"0i[444]j_444444_j]444)kh",
"[i[]]]]l]]]]]]]]l]]]]/m[",
"/n/__________________/o[",
"p!5dddddddddddddddddddq8",
"])rs5444444444444445l.;_",
"tp=ku..............vi;wt",
"ss};&&&&&&&&&&&&&&&&;5ss",
"ssssssssssssssssssssssss",
"xxxxxxxxxxxxxxxxxxxxxxxx",
"llllllllllllllllllllllll",
"yyyyyyyyyyyyyyyyyyyyyyyy",
"yyyyyyyyyyyyyyyyyyyyyyyy",
"zzzzzzzzzzzzzzzzzzzzzzzz",
"AAAAAAAAAAAAAAAAAAAAAAAA",
"BBBBBBBBBBBBBBBBBBBBBBBB",
"BBBBBBBBBBBBBBBBBBBBBBBB",
"CCCCCCCCCCCCCCCCCCCCCCCC",
"DDDDDDDDDDDDDDDDDDDDDDDD"};
