/* XPM */
static char * maximize_prelight_xpm[] = {
"24 27 241 2",
"  	c None",
". 	c #2C2826",
"+ 	c #3D2714",
"@ 	c #302925",
"# 	c #0C0C0C",
"$ 	c #0C0B0B",
"% 	c #0E0C0B",
"& 	c #120E0C",
"* 	c #18110D",
"= 	c #20140F",
"- 	c #271810",
"; 	c #2C1A12",
"> 	c #322B26",
", 	c #3B2412",
"' 	c #2A2624",
") 	c #B6B1B0",
"! 	c #8F7864",
"~ 	c #B6B0AB",
"{ 	c #ABABAB",
"] 	c #ABABAA",
"^ 	c #ACA9A9",
"/ 	c #ADA8A6",
"( 	c #B0A7A3",
"_ 	c #B4A59F",
": 	c #B9A399",
"< 	c #BDA194",
"[ 	c #C0A091",
"} 	c #B7AFAB",
"| 	c #8E7664",
"1 	c #B5B1AF",
"2 	c #7D7877",
"3 	c #6D5540",
"4 	c #7E7873",
"5 	c #696968",
"6 	c #6B6968",
"7 	c #6E6967",
"8 	c #736A66",
"9 	c #7B6B63",
"0 	c #876E63",
"a 	c #947162",
"b 	c #A07662",
"c 	c #A77863",
"d 	c #7F7874",
"e 	c #6C533E",
"f 	c #7B7775",
"g 	c #7C7776",
"h 	c #6C533C",
"i 	c #7E7772",
"j 	c #6A6867",
"k 	c #6D6866",
"l 	c #736964",
"m 	c #7C6B63",
"n 	c #896E62",
"o 	c #987362",
"p 	c #A97963",
"q 	c #B77F65",
"r 	c #DC9664",
"s 	c #807872",
"t 	c #6B513B",
"u 	c #7A7675",
"v 	c #6C513A",
"w 	c #7E7671",
"x 	c #6C6664",
"y 	c #726762",
"z 	c #7C6A61",
"A 	c #896D61",
"B 	c #9A7260",
"C 	c #AC7A63",
"D 	c #BE8368",
"E 	c #E69D66",
"F 	c #FDEDE0",
"G 	c #BE8367",
"H 	c #896D60",
"I 	c #807772",
"J 	c #6A5039",
"K 	c #7A7574",
"L 	c #7B7675",
"M 	c #6B5037",
"N 	c #81766F",
"O 	c #726863",
"P 	c #8A6D5F",
"Q 	c #9C7361",
"R 	c #AE7A63",
"S 	c #C08366",
"T 	c #EBA268",
"U 	c #FEF4EC",
"V 	c #FFFFFF",
"W 	c #7C6961",
"X 	c #837770",
"Y 	c #694E36",
"Z 	c #7A7573",
"` 	c #7B7673",
" .	c #6B4E34",
"..	c #84756E",
"+.	c #7A685F",
"@.	c #886B5D",
"#.	c #9B715E",
"$.	c #AE7860",
"%.	c #C18062",
"&.	c #EEA66E",
"*.	c #FFFAF6",
"=.	c #FFFDFC",
"-.	c #F2B27F",
";.	c #C18061",
">.	c #86766E",
",.	c #694C33",
"'.	c #7A7572",
").	c #7B7572",
"!.	c #6A4C30",
"~.	c #88756B",
"{.	c #82685C",
"].	c #956D5A",
"^.	c #AA755D",
"/.	c #C17D5C",
"(.	c #F0AC77",
"_.	c #FFFBF7",
":.	c #EBA772",
"<.	c #C28162",
"[.	c #AA755C",
"}.	c #89766C",
"|.	c #684A2F",
"1.	c #7A7470",
"2.	c #7B7471",
"3.	c #694B2D",
"4.	c #8B7569",
"5.	c #89695A",
"6.	c #9E6D57",
"7.	c #B77656",
"8.	c #F2B27D",
"9.	c #E29D6A",
"0.	c #AF7960",
"a.	c #A7765F",
"b.	c #A7765E",
"c.	c #AF7860",
"d.	c #8C756A",
"e.	c #68492B",
"f.	c #797370",
"g.	c #68492A",
"h.	c #8C7568",
"i.	c #8A6958",
"j.	c #A06D56",
"k.	c #B27458",
"l.	c #E19B65",
"m.	c #FBDFC6",
"n.	c #D99664",
"o.	c #A5755E",
"p.	c #976F5D",
"q.	c #8F6D5D",
"r.	c #E19A65",
"s.	c #8E7569",
"t.	c #67482A",
"u.	c #7A7270",
"v.	c #7D7571",
"w.	c #684829",
"x.	c #897468",
"y.	c #856658",
"z.	c #976A56",
"A.	c #A56F55",
"B.	c #AB7257",
"C.	c #BA7952",
"D.	c #9D705C",
"E.	c #8E6C5D",
"F.	c #7B675D",
"G.	c #8E6C5C",
"H.	c #AB7157",
"I.	c #8A7469",
"J.	c #664828",
"K.	c #7C7470",
"L.	c #7E7571",
"M.	c #634524",
"N.	c #87746A",
"O.	c #7B6459",
"P.	c #876656",
"Q.	c #916956",
"R.	c #956A57",
"S.	c #906958",
"T.	c #86695A",
"U.	c #7B655C",
"V.	c #72645D",
"W.	c #6D635E",
"X.	c #887569",
"Y.	c #644626",
"Z.	c #76706D",
"`.	c #6E563E",
" +	c #806B5B",
".+	c #6F615B",
"++	c #776258",
"@+	c #7D6458",
"#+	c #7F6458",
"$+	c #75635B",
"%+	c #6E625D",
"&+	c #69625E",
"*+	c #65615E",
"=+	c #70625C",
"-+	c #7E6855",
";+	c #715A45",
">+	c #756F6B",
",+	c #656362",
"'+	c #8C7A6C",
")+	c #5C3F1D",
"!+	c #72655B",
"~+	c #736863",
"{+	c #756861",
"]+	c #736862",
"^+	c #706763",
"/+	c #6C6764",
"(+	c #6A6765",
"_+	c #696765",
":+	c #736864",
"<+	c #716459",
"[+	c #5C3D1A",
"}+	c #8D7B70",
"|+	c #646262",
"1+	c #606060",
"2+	c #776F6B",
"3+	c #8F796B",
"4+	c #654729",
"5+	c #593B17",
"6+	c #593C18",
"7+	c #593B19",
"8+	c #583B19",
"9+	c #583B17",
"0+	c #65492B",
"a+	c #8F7A6E",
"b+	c #756D6A",
"c+	c #5F5F5F",
"d+	c #6B6664",
"e+	c #837771",
"f+	c #8D7E76",
"g+	c #8E7E76",
"h+	c #8C7E76",
"i+	c #696564",
"j+	c #5F5E5E",
"k+	c #5E5E5E",
"l+	c #5D5D5D",
"m+	c #5C5C5C",
"n+	c #5B5B5B",
"o+	c #5A5A5A",
"p+	c #595959",
"q+	c #585858",
"r+	c #575757",
". + @ # # $ % & * = - ; ; - = * & % $ # # > , ' ",
") ! ~ { ] ^ / ( _ : < [ [ < : _ ( / ^ ] { } | 1 ",
"2 3 4 5 6 7 8 9 0 a b c c b a 0 9 8 7 6 5 d e f ",
"g h i j k l m n o p q r r q p o n m l k j s t u ",
"f v w x y z A B C D E F F E G C B H z y x I J K ",
"L M N O z P Q R S T U V V U T S R Q P W O X Y Z ",
"`  ...+.@.#.$.%.&.*.=.-.-.=.*.&.;.$.#.@.+.>.,.'.",
").!.~.{.].^./.(.=._.:.<.<.:._.=.(./.[.].{.}.|.1.",
"2.3.4.5.6.7.8.V U 9.0.a.b.c.9.U V 8.7.6.5.d.e.f.",
"2.g.h.i.j.k.l.m.n.o.p.q.q.p.o.n.m.r.k.j.i.s.t.u.",
"v.w.x.y.z.A.B.C.D.E.{.F.F.{.G.D.C.H.A.z.y.I.J.K.",
"L.M.N.O.P.Q.R.S.T.U.V.W.W.V.U.T.S.R.Q.P.O.X.Y.K.",
"Z.`. +.+++@+#+O.$+%+&+*+*+&+%+$+O.#+@+++=+-+;+>+",
",+'+)+!+~+{+{+]+^+/+(+_+_+(+/+^+]+{+{+:+<+[+}+|+",
"1+2+3+4+5+6+6+6+7+7+8+8+8+8+7+7+6+6+6+9+0+a+b+1+",
"c+c+d+e+f+g+g+g+f+f+h+h+h+h+f+f+g+g+g+f+e+i+c+c+",
"c+c+c+c+j+j+j+j+c+c+c+c+c+c+c+c+j+j+j+j+c+c+c+c+",
"k+k+k+k+k+k+k+k+k+k+k+k+k+k+k+k+k+k+k+k+k+k+k+k+",
"l+l+l+l+l+l+l+l+l+l+l+l+l+l+l+l+l+l+l+l+l+l+l+l+",
"m+m+m+m+m+m+m+m+m+m+m+m+m+m+m+m+m+m+m+m+m+m+m+m+",
"m+m+m+m+m+m+m+m+m+m+m+m+m+m+m+m+m+m+m+m+m+m+m+m+",
"n+n+n+n+n+n+n+n+n+n+n+n+n+n+n+n+n+n+n+n+n+n+n+n+",
"o+o+o+o+o+o+o+o+o+o+o+o+o+o+o+o+o+o+o+o+o+o+o+o+",
"p+p+p+p+p+p+p+p+p+p+p+p+p+p+p+p+p+p+p+p+p+p+p+p+",
"p+p+p+p+p+p+p+p+p+p+p+p+p+p+p+p+p+p+p+p+p+p+p+p+",
"q+q+q+q+q+q+q+q+q+q+q+q+q+q+q+q+q+q+q+q+q+q+q+q+",
"r+r+r+r+r+r+r+r+r+r+r+r+r+r+r+r+r+r+r+r+r+r+r+r+"};
