/* XPM */
static char * maximize_toggled_inactive_xpm[] = {
"24 27 74 1",
" 	c None",
".	c #1E1E1E",
"+	c #121212",
"@	c #212121",
"#	c #0C0C0C",
"$	c #232323",
"%	c #111111",
"&	c #1D1D1D",
"*	c #B1B1B1",
"=	c #777777",
"-	c #B2B2B2",
";	c #ABABAB",
">	c #B3B3B3",
",	c #757575",
"'	c #B0B0B0",
")	c #747474",
"!	c #4B4B4B",
"~	c #767676",
"{	c #696969",
"]	c #494949",
"^	c #737373",
"/	c #484848",
"(	c #686868",
"_	c #646464",
":	c #636363",
"<	c #656565",
"[	c #474747",
"}	c #727272",
"|	c #676767",
"1	c #A5A5A5",
"2	c #454545",
"3	c #717171",
"4	c #444444",
"5	c #969696",
"6	c #7A7A7A",
"7	c #626262",
"8	c #434343",
"9	c #666666",
"0	c #909090",
"a	c #828282",
"b	c #414141",
"c	c #707070",
"d	c #404040",
"e	c #898989",
"f	c #A4A4A4",
"g	c #3F3F3F",
"h	c #606060",
"i	c #818181",
"j	c #A3A3A3",
"k	c #3C3C3C",
"l	c #6F6F6F",
"m	c #7B7B7B",
"n	c #3B3B3B",
"o	c #3A3A3A",
"p	c #6E6E6E",
"q	c #4D4D4D",
"r	c #616161",
"s	c #525252",
"t	c #6C6C6C",
"u	c #353535",
"v	c #5F5F5F",
"w	c #5D5D5D",
"x	c #333333",
"y	c #323232",
"z	c #313131",
"A	c #6D6D6D",
"B	c #7D7D7D",
"C	c #5E5E5E",
"D	c #5C5C5C",
"E	c #5B5B5B",
"F	c #5A5A5A",
"G	c #595959",
"H	c #585858",
"I	c #575757",
".+@##################$%&",
"*=-;;;;;;;;;;;;;;;;;;>,'",
")!~{{{{{{{{{{{{{{{{{{=]^",
"^/,(((_:<((((((<:_(((~[}",
"}[)||_}1^:||||:^1}_||,23",
"}4)|||<5167||7615<|||,83",
"}8^9999:01a77a10:9999,bc",
"3d}<<<<<7efeefe7<<<<<)gc",
"cg3______hijjih______^kl",
"ck3_______hmmh_______^nl",
"3k3::::::::hh::::::::}o3",
"}o}777777777777777777}n3",
"pq<rrrrrrrrrrrrrrrrrrrst",
":^uv<______________<wx~7",
"hp)gyxxxxxxxxxxxxxxzd~Ah",
"vv9~BBBBBBBBBBBBBBBB~<vv",
"vvvvvvvvvvvvvvvvvvvvvvvv",
"CCCCCCCCCCCCCCCCCCCCCCCC",
"wwwwwwwwwwwwwwwwwwwwwwww",
"DDDDDDDDDDDDDDDDDDDDDDDD",
"DDDDDDDDDDDDDDDDDDDDDDDD",
"EEEEEEEEEEEEEEEEEEEEEEEE",
"FFFFFFFFFFFFFFFFFFFFFFFF",
"GGGGGGGGGGGGGGGGGGGGGGGG",
"GGGGGGGGGGGGGGGGGGGGGGGG",
"HHHHHHHHHHHHHHHHHHHHHHHH",
"IIIIIIIIIIIIIIIIIIIIIIII"};
