/* XPM */
static char * maximize_pressed_xpm[] = {
"24 27 107 2",
"  	c None",
". 	c #2A2A2A",
"+ 	c #221812",
"@ 	c #4C4846",
"# 	c #211913",
"$ 	c #282828",
"% 	c #B5B5B5",
"& 	c #615751",
"* 	c #5B5856",
"= 	c #655B55",
"- 	c #B4B4B4",
"; 	c #7B7B7B",
"> 	c #463B34",
", 	c #55514F",
"' 	c #483D37",
") 	c #7A7A7A",
"! 	c #443831",
"~ 	c #5B4C44",
"{ 	c #5C4B44",
"] 	c #473A33",
"^ 	c #797979",
"/ 	c #43362D",
"( 	c #54514F",
"_ 	c #624B3F",
": 	c #B86D4B",
"< 	c #463931",
"[ 	c #787878",
"} 	c #43352B",
"| 	c #6C4C3F",
"1 	c #BF7959",
"2 	c #FDF9F7",
"3 	c #45372D",
"4 	c #423327",
"5 	c #774F3D",
"6 	c #C8886B",
"7 	c #FEFBFA",
"8 	c #E6C5B6",
"9 	c #433529",
"0 	c #423125",
"a 	c #81513C",
"b 	c #D19A81",
"c 	c #FFFDFC",
"d 	c #DBB09C",
"e 	c #8D563D",
"f 	c #433327",
"g 	c #777777",
"h 	c #423022",
"i 	c #8D533A",
"j 	c #DBAE99",
"k 	c #D3A088",
"l 	c #82533D",
"m 	c #443224",
"n 	c #767676",
"o 	c #412D1F",
"p 	c #594A42",
"q 	c #B96944",
"r 	c #FEFBF9",
"s 	c #CB8E73",
"t 	c #78503E",
"u 	c #443022",
"v 	c #422E1E",
"w 	c #54504F",
"x 	c #6A4E41",
"y 	c #AC5933",
"z 	c #6E4E3F",
"A 	c #453020",
"B 	c #7A7979",
"C 	c #7D7C7C",
"D 	c #473120",
"E 	c #534E4D",
"F 	c #524E4A",
"G 	c #4A3526",
"H 	c #5F5046",
"I 	c #4C4139",
"J 	c #54504E",
"K 	c #4B3E36",
"L 	c #63574D",
"M 	c #747474",
"N 	c #656565",
"O 	c #898480",
"P 	c #3E2716",
"Q 	c #4F4842",
"R 	c #4E4540",
"S 	c #3E2514",
"T 	c #8B8785",
"U 	c #646464",
"V 	c #606060",
"W 	c #8D8884",
"X 	c #523E2F",
"Y 	c #402615",
"Z 	c #402716",
"` 	c #523F31",
" .	c #8E8A86",
"..	c #5F5F5F",
"+.	c #6B6B6B",
"@.	c #878686",
"#.	c #908F8E",
"$.	c #858585",
"%.	c #6A6A6A",
"&.	c #5E5E5E",
"*.	c #5D5D5D",
"=.	c #5C5C5C",
"-.	c #5B5B5B",
";.	c #5A5A5A",
">.	c #595959",
",.	c #585858",
"'.	c #575757",
". + @ @ @ @ @ @ @ @ @ @ @ @ @ @ @ @ @ @ @ @ # $ ",
"% & * * * * * * * * * * * * * * * * * * * * = - ",
"; > , , , , , , , , , , , , , , , , , , , , ' ) ",
") ! , , , , , , , , , ~ { , , , , , , , , , ] ^ ",
") / ( ( ( ( ( ( ( ( _ : : _ ( ( ( ( ( ( ( ( < [ ",
") } ( ( ( ( ( ( ( | 1 2 2 1 | ( ( ( ( ( ( ( 3 ^ ",
"^ 4 ( ( ( ( ( ( 5 6 7 8 8 7 6 5 ( ( ( ( ( ( 9 [ ",
"[ 0 ( ( ( ( ( a b c d e e d c b a ( ( ( ( ( f g ",
"[ h ( ( ( ( i j c k l ( ( l k c j i ( ( ( ( m n ",
"[ o ( ( ( p q r s t ( ( ( ( t s r q p ( ( ( u g ",
"; v w w w w x y z w w w w w w z y x w w w w A B ",
"C D E w w w w w w w w w w w w w w w w w w F G ; ",
"n H I J J J J J J J J J J J J J J J J J J K L M ",
"N O P Q J J J J J J J J J J J J J J J J R S T U ",
"V [ W X Y Z Z Z Z Z Z Z Z Z Z Z Z Z Z Y `  .n V ",
"....+.@.#.#.#.#.#.#.#.#.#.#.#.#.#.#.#.#.$.%.....",
"................................................",
"&.&.&.&.&.&.&.&.&.&.&.&.&.&.&.&.&.&.&.&.&.&.&.&.",
"*.*.*.*.*.*.*.*.*.*.*.*.*.*.*.*.*.*.*.*.*.*.*.*.",
"=.=.=.=.=.=.=.=.=.=.=.=.=.=.=.=.=.=.=.=.=.=.=.=.",
"=.=.=.=.=.=.=.=.=.=.=.=.=.=.=.=.=.=.=.=.=.=.=.=.",
"-.-.-.-.-.-.-.-.-.-.-.-.-.-.-.-.-.-.-.-.-.-.-.-.",
";.;.;.;.;.;.;.;.;.;.;.;.;.;.;.;.;.;.;.;.;.;.;.;.",
">.>.>.>.>.>.>.>.>.>.>.>.>.>.>.>.>.>.>.>.>.>.>.>.",
">.>.>.>.>.>.>.>.>.>.>.>.>.>.>.>.>.>.>.>.>.>.>.>.",
",.,.,.,.,.,.,.,.,.,.,.,.,.,.,.,.,.,.,.,.,.,.,.,.",
"'.'.'.'.'.'.'.'.'.'.'.'.'.'.'.'.'.'.'.'.'.'.'.'."};
