/* XPM */
static char * maximize_toggled_pressed_xpm[] = {
"24 27 156 2",
"  	c None",
". 	c #2A2A2A",
"+ 	c #221812",
"@ 	c #4C4846",
"# 	c #211913",
"$ 	c #282828",
"% 	c #B5B5B5",
"& 	c #615751",
"* 	c #5B5856",
"= 	c #655B55",
"- 	c #B4B4B4",
"; 	c #7B7B7B",
"> 	c #463B34",
", 	c #55514F",
"' 	c #54504E",
") 	c #5C4847",
"! 	c #594A49",
"~ 	c #55504E",
"{ 	c #5A4A49",
"] 	c #483D37",
"^ 	c #7A7A7A",
"/ 	c #443831",
"( 	c #554F4D",
"_ 	c #74594D",
": 	c #A1715B",
"< 	c #8F614D",
"[ 	c #5F4B44",
"} 	c #6C4F43",
"| 	c #9D6A53",
"1 	c #906653",
"2 	c #65524B",
"3 	c #473A33",
"4 	c #797979",
"5 	c #43362D",
"6 	c #54514F",
"7 	c #594A48",
"8 	c #95624C",
"9 	c #EBBEA9",
"0 	c #E8C7B7",
"a 	c #9B7261",
"b 	c #5E4543",
"c 	c #6B493C",
"d 	c #B68B79",
"e 	c #F8D3C2",
"f 	c #D4A38B",
"g 	c #7B584A",
"h 	c #463931",
"i 	c #787878",
"j 	c #43352B",
"k 	c #564E4C",
"l 	c #724F40",
"m 	c #C99F8B",
"n 	c #FCE4D9",
"o 	c #EFD1C3",
"p 	c #A37765",
"q 	c #604441",
"r 	c #524E4C",
"s 	c #714E3E",
"t 	c #BA8E79",
"u 	c #FDE4D8",
"v 	c #F0D2C3",
"w 	c #E2B7A3",
"x 	c #917B73",
"y 	c #504D4B",
"z 	c #45372D",
"A 	c #423327",
"B 	c #68483C",
"C 	c #C29583",
"D 	c #FCE2D5",
"E 	c #F2D8CA",
"F 	c #AA7D6A",
"G 	c #835341",
"H 	c #BC9582",
"I 	c #FCE4D8",
"J 	c #EBCBBC",
"K 	c #E0B7A5",
"L 	c #927C78",
"M 	c #514E4C",
"N 	c #433529",
"O 	c #423125",
"P 	c #64453C",
"Q 	c #BA8D7B",
"R 	c #F5D9CA",
"S 	c #F4DDD2",
"T 	c #E3C5B6",
"U 	c #F3DACD",
"V 	c #E8C6B5",
"W 	c #DFB7A6",
"X 	c #806F6E",
"Y 	c #433327",
"Z 	c #777777",
"` 	c #423022",
" .	c #60433E",
"..	c #AF8270",
"+.	c #EFD2C3",
"@.	c #FFF0E4",
"#.	c #E6C0AE",
"$.	c #DFB9A8",
"%.	c #736665",
"&.	c #514F4D",
"*.	c #443224",
"=.	c #767676",
"-.	c #412D1F",
";.	c #624941",
">.	c #A67661",
",.	c #D9A68F",
"'.	c #DDB9AA",
").	c #69605F",
"!.	c #53504E",
"~.	c #443022",
"{.	c #422E1E",
"].	c #54504F",
"^.	c #5D4A45",
"/.	c #70574C",
"(.	c #645C5A",
"_.	c #453020",
":.	c #7A7979",
"<.	c #7D7C7C",
"[.	c #473120",
"}.	c #534E4D",
"|.	c #524E4A",
"1.	c #4A3526",
"2.	c #5F5046",
"3.	c #4C4139",
"4.	c #4B3E36",
"5.	c #63574D",
"6.	c #747474",
"7.	c #656565",
"8.	c #898480",
"9.	c #3E2716",
"0.	c #4F4842",
"a.	c #4E4540",
"b.	c #3E2514",
"c.	c #8B8785",
"d.	c #646464",
"e.	c #606060",
"f.	c #8D8884",
"g.	c #523E2F",
"h.	c #402615",
"i.	c #402716",
"j.	c #523F31",
"k.	c #8E8A86",
"l.	c #5F5F5F",
"m.	c #6B6B6B",
"n.	c #878686",
"o.	c #908F8E",
"p.	c #858585",
"q.	c #6A6A6A",
"r.	c #5E5E5E",
"s.	c #5D5D5D",
"t.	c #5C5C5C",
"u.	c #5B5B5B",
"v.	c #5A5A5A",
"w.	c #595959",
"x.	c #585858",
"y.	c #575757",
". + @ @ @ @ @ @ @ @ @ @ @ @ @ @ @ @ @ @ @ @ # $ ",
"% & * * * * * * * * * * * * * * * * * * * * = - ",
"; > , , , ' ) ! , , , , , , ~ ) { , , , , , ] ^ ",
"^ / , , ( _ : < [ , , , , , } | 1 2 , , , , 3 4 ",
"^ 5 6 6 7 8 9 0 a b 6 6 6 c d e f g 6 6 6 6 h i ",
"^ j 6 6 k l m n o p q r s t u v w x y 6 6 6 z 4 ",
"4 A 6 6 6 6 B C D E F G H I J K L M 6 6 6 6 N i ",
"i O 6 6 6 6 6 P Q R S T U V W X M 6 6 6 6 6 Y Z ",
"i ` 6 6 6 6 6 6  ...+.@.#.$.%.&.6 6 6 6 6 6 *.=.",
"i -.6 6 6 6 6 6 6 ;.>.,.'.).!.6 6 6 6 6 6 6 ~.Z ",
"; {.].].].].].].].].^./.(.].].].].].].].].]._.:.",
"<.[.}.].].].].].].].].].].].].].].].].].].|.1.; ",
"=.2.3.' ' ' ' ' ' ' ' ' ' ' ' ' ' ' ' ' ' 4.5.6.",
"7.8.9.0.' ' ' ' ' ' ' ' ' ' ' ' ' ' ' ' a.b.c.d.",
"e.i f.g.h.i.i.i.i.i.i.i.i.i.i.i.i.i.i.h.j.k.=.e.",
"l.l.m.n.o.o.o.o.o.o.o.o.o.o.o.o.o.o.o.o.p.q.l.l.",
"l.l.l.l.l.l.l.l.l.l.l.l.l.l.l.l.l.l.l.l.l.l.l.l.",
"r.r.r.r.r.r.r.r.r.r.r.r.r.r.r.r.r.r.r.r.r.r.r.r.",
"s.s.s.s.s.s.s.s.s.s.s.s.s.s.s.s.s.s.s.s.s.s.s.s.",
"t.t.t.t.t.t.t.t.t.t.t.t.t.t.t.t.t.t.t.t.t.t.t.t.",
"t.t.t.t.t.t.t.t.t.t.t.t.t.t.t.t.t.t.t.t.t.t.t.t.",
"u.u.u.u.u.u.u.u.u.u.u.u.u.u.u.u.u.u.u.u.u.u.u.u.",
"v.v.v.v.v.v.v.v.v.v.v.v.v.v.v.v.v.v.v.v.v.v.v.v.",
"w.w.w.w.w.w.w.w.w.w.w.w.w.w.w.w.w.w.w.w.w.w.w.w.",
"w.w.w.w.w.w.w.w.w.w.w.w.w.w.w.w.w.w.w.w.w.w.w.w.",
"x.x.x.x.x.x.x.x.x.x.x.x.x.x.x.x.x.x.x.x.x.x.x.x.",
"y.y.y.y.y.y.y.y.y.y.y.y.y.y.y.y.y.y.y.y.y.y.y.y."};
