/* XPM */
static char * maximize_active_xpm[] = {
"24 27 81 1",
" 	c None",
".	c #2A2A2A",
"+	c #191919",
"@	c #313131",
"#	c #0C0C0C",
"$	c #343434",
"%	c #161616",
"&	c #282828",
"*	c #B5B5B5",
"=	c #686868",
"-	c #B7B7B7",
";	c #ABABAB",
">	c #B8B8B8",
",	c #666666",
"'	c #B4B4B4",
")	c #7B7B7B",
"!	c #454545",
"~	c #7F7F7F",
"{	c #696969",
"]	c #818181",
"^	c #424242",
"/	c #7A7A7A",
"(	c #414141",
"_	c #5F5F5F",
":	c #808080",
"<	c #3E3E3E",
"[	c #797979",
"}	c #7E7E7E",
"|	c #676767",
"1	c #5E5E5E",
"2	c #C8C8C8",
"3	c #3C3C3C",
"4	c #787878",
"5	c #606060",
"6	c #D3D3D3",
"7	c #E4E4E4",
"8	c #3A3A3A",
"9	c #393939",
"0	c #7D7D7D",
"a	c #636363",
"b	c #646464",
"c	c #DCDCDC",
"d	c #E1E1E1",
"e	c #737373",
"f	c #363636",
"g	c #7C7C7C",
"h	c #656565",
"i	c #6D6D6D",
"j	c #626262",
"k	c #777777",
"l	c #333333",
"m	c #E3E3E3",
"n	c #D2D2D2",
"o	c #767676",
"p	c #B1B1B1",
"q	c #616161",
"r	c #2E2E2E",
"s	c #2F2F2F",
"t	c #585858",
"u	c #2D2D2D",
"v	c #2B2B2B",
"w	c #2C2C2C",
"x	c #464646",
"y	c #6B6B6B",
"z	c #4F4F4F",
"A	c #747474",
"B	c #838383",
"C	c #1F1F1F",
"D	c #5D5D5D",
"E	c #1B1B1B",
"F	c #878787",
"G	c #1A1A1A",
"H	c #898989",
"I	c #919191",
"J	c #858585",
"K	c #6A6A6A",
"L	c #5C5C5C",
"M	c #5B5B5B",
"N	c #5A5A5A",
"O	c #595959",
"P	c #575757",
".+@##################$%&",
"*=-;;;;;;;;;;;;;;;;;;>,'",
")!~{{{{{{{{{{{{{{{{{{]^/",
"/(~========__========:<[",
"/<}|||||||1221|||||||~34",
"/3}|||||,567765,|||||~8[",
"[90,,,,abcdeedcba,,,,}f4",
"4fghhh5idc{jj{cdi5hhh0$k",
"4l)bb1emnbabbabnme1bbg@o",
"4@)bbbjpqbbbbbbqpjbbbgrk",
")s/aaaataaaaaaaataaaagu/",
"0v0jjjjjjjjjjjjjjjjjj0w)",
"oxyqqqqqqqqqqqqqqqqqq,zA",
"hBC5{||||||||||||||{DEFb",
"54F@GEEEEEEEEEEEEEE+lHo5",
"__yFIIIIIIIIIIIIIIIIJK__",
"________________________",
"111111111111111111111111",
"DDDDDDDDDDDDDDDDDDDDDDDD",
"LLLLLLLLLLLLLLLLLLLLLLLL",
"LLLLLLLLLLLLLLLLLLLLLLLL",
"MMMMMMMMMMMMMMMMMMMMMMMM",
"NNNNNNNNNNNNNNNNNNNNNNNN",
"OOOOOOOOOOOOOOOOOOOOOOOO",
"OOOOOOOOOOOOOOOOOOOOOOOO",
"tttttttttttttttttttttttt",
"PPPPPPPPPPPPPPPPPPPPPPPP"};
