/* XPM */
static char * title_1_inactive_xpm[] = {
"10 25 20 1",
" 	c None",
".	c #696969",
"+	c #686868",
"@	c #676767",
"#	c #666666",
"$	c #656565",
"%	c #646464",
"&	c #636363",
"*	c #626262",
"=	c #616161",
"-	c #606060",
";	c #5F5F5F",
">	c #5E5E5E",
",	c #5D5D5D",
"'	c #5C5C5C",
")	c #5B5B5B",
"!	c #5A5A5A",
"~	c #595959",
"{	c #585858",
"]	c #575757",
"..........",
"++++++++++",
"@@@@@@@@@@",
"@@@@@@@@@@",
"##########",
"$$$$$$$$$$",
"%%%%%%%%%%",
"%%%%%%%%%%",
"&&&&&&&&&&",
"**********",
"==========",
"==========",
"----------",
";;;;;;;;;;",
";;;;;;;;;;",
">>>>>>>>>>",
",,,,,,,,,,",
"''''''''''",
"''''''''''",
"))))))))))",
"!!!!!!!!!!",
"~~~~~~~~~~",
"~~~~~~~~~~",
"{{{{{{{{{{",
"]]]]]]]]]]"};
