/* XPM */
static char * top_left_inactive_xpm[] = {
"6 27 32 1",
" 	c None",
".	c #333333",
"+	c #A6A6A6",
"@	c #ABABAB",
"#	c #969696",
"$	c #707070",
"%	c #8F8F8F",
"&	c #868686",
"*	c #6E6E6E",
"=	c #686868",
"-	c #858585",
";	c #6A6A6A",
">	c #676767",
",	c #767676",
"'	c #737373",
")	c #6F6F6F",
"!	c #666666",
"~	c #656565",
"{	c #646464",
"]	c #636363",
"^	c #626262",
"/	c #616161",
"(	c #606060",
"_	c #5F5F5F",
":	c #5E5E5E",
"<	c #5D5D5D",
"[	c #5C5C5C",
"}	c #5B5B5B",
"|	c #5A5A5A",
"1	c #595959",
"2	c #585858",
"3	c #575757",
"     .",
"   ..+",
"  .@#$",
" .%&*=",
" .-;>>",
".-,>>>",
".')!!!",
".!~~~~",
".~{{{{",
".~{{{{",
".{]]]]",
".{^^^^",
".]////",
".]////",
".^((((",
".^____",
".^____",
"./::::",
".(<<<<",
".([[[[",
".([[[[",
"._}}}}",
".:||||",
".<1111",
".<1111",
".<2222",
".33333"};
