/* XPM */
static char * top_right_active_xpm[] = {
"6 27 29 1",
" 	c None",
".	c #0C0C0C",
"+	c #A6A6A6",
"@	c #7F7F7F",
"#	c #999999",
"$	c #686868",
"%	c #747474",
"&	c #676767",
"*	c #707070",
"=	c #828282",
"-	c #6A6A6A",
";	c #666666",
">	c #656565",
",	c #606060",
"'	c #646464",
")	c #5F5F5F",
"!	c #636363",
"~	c #5E5E5E",
"{	c #626262",
"]	c #5D5D5D",
"^	c #616161",
"/	c #5C5C5C",
"(	c #5B5B5B",
"_	c #5A5A5A",
":	c #595959",
"<	c #585858",
"[	c #575757",
"}	c #565656",
"|	c #555555",
".     ",
"+..   ",
"@##.  ",
"$%@#. ",
"&&*=. ",
"&&&-%.",
";;;;-.",
">>>>,.",
"'''').",
"'''').",
"!!!!~.",
"{{{{].",
"^^^^/.",
"^^^^/.",
",,,,(.",
"))))(.",
"))))(.",
"~~~~_.",
"]]]]:.",
"////<.",
"////<.",
"(((([.",
"____}.",
"::::|.",
"::::|.",
"<<<<<.",
"[[[[[."};
