/* XPM */
static char * bd_bl_un_xpm[] = {
"5 5 23 1",
" 	c None",
".	c #000106",
"+	c #958EED",
"@	c #7970DB",
"#	c #7068BB",
"$	c #020111",
"%	c #000200",
"&	c #948DEA",
"*	c #7871DB",
"=	c #857AE2",
"-	c #9790D4",
";	c #9790ED",
">	c #7671CF",
",	c #7B70D8",
"'	c #7D71D5",
")	c #000100",
"!	c #5D59A3",
"~	c #303262",
"{	c #2F2E58",
"]	c #333159",
"^	c #010101",
"/	c #000000",
"(	c #020202",
".+@#$",
"%&*=-",
"%;>,'",
")!~{]",
"^//(^"};
