/* XPM */
static char * bd_br_xpm[] = {
"5 5 23 1",
" 	c None",
".	c #000009",
"+	c #BCBBF4",
"@	c #A09BED",
"#	c #615A9D",
"$	c #010006",
"%	c #C7C4FB",
"&	c #B4B2FD",
"*	c #9F99F1",
"=	c #675DA2",
"-	c #000004",
";	c #9D98EC",
">	c #9B97EC",
",	c #9D97F1",
"'	c #695FA8",
")	c #414369",
"!	c #3D4262",
"~	c #41436C",
"{	c #403C5F",
"]	c #010200",
"^	c #010101",
"/	c #000000",
"(	c #020202",
".+@#$",
"%&*=-",
";>,'$",
")!~{]",
"^/(/("};
