/* XPM */
static char * bd_bl_xpm[] = {
"5 5 22 1",
" 	c None",
".	c #010100",
"+	c #B5ADF6",
"@	c #9F99F1",
"#	c #8F8CD3",
"$	c #00000C",
"%	c #000200",
"&	c #B8B0F9",
"*	c #9B94F3",
"=	c #A39CFB",
"-	c #B5AEF4",
";	c #000002",
">	c #B4AAFF",
",	c #A29BFA",
"'	c #9E97F7",
")	c #A49AFB",
"!	c #020200",
"~	c #7B75BB",
"{	c #3F426D",
"]	c #3D435D",
"^	c #3F405F",
"/	c #000000",
".+@#$",
"%&*=-",
";>,')",
"!~{]^",
"/////"};
