/* XPM */
static char * bd_horz_xpm[] = {
"16 5 6 1",
" 	c None",
".	c #000000",
"+	c #C8C3F9",
"@	c #9E97F4",
"#	c #404269",
"$	c #000100",
"................",
"++++++++++++++++",
"@@@@@@@@@@@@@@@@",
"################",
"$$$$$$$$$$$$$$$$"};
