/* XPM */
static char * bd_vert_xpm[] = {
"5 16 6 1",
" 	c None",
".	c #000102",
"+	c #B3B0F7",
"@	c #9E97F7",
"#	c #655F9B",
"$	c #000000",
".+@#$",
".+@#$",
".+@#$",
".+@#$",
".+@#$",
".+@#$",
".+@#$",
".+@#$",
".+@#$",
".+@#$",
".+@#$",
".+@#$",
".+@#$",
".+@#$",
".+@#$",
".+@#$"};
