/* XPM */
static char * bd_vert_un_xpm[] = {
"5 16 10 1",
" 	c None",
".	c #000002",
"+	c #968EE3",
"@	c #7872D4",
"#	c #49458F",
"$	c #000100",
"%	c #978FE5",
"&	c #7A72D5",
"*	c #4B487F",
"=	c #000009",
".+@#$",
".+@#$",
".+@#$",
".+@#$",
".+@#$",
".+@#$",
".+@#$",
".+@#$",
".+@#$",
".+@#$",
".+@#$",
".+@#$",
".+@#$",
".+@#$",
".+@#$",
"$%&*="};
