/* XPM */
static char * bt_close_un_xpm[] = {
"17 22 250 2",
"  	c None",
". 	c #010000",
"+ 	c #000000",
"@ 	c #010103",
"# 	c #030106",
"$ 	c #010002",
"% 	c #040108",
"& 	c #000005",
"* 	c #03030D",
"= 	c #B1ACEC",
"- 	c #AFAFED",
"; 	c #AFAFE5",
"> 	c #B3B1E3",
", 	c #AFA9E5",
"' 	c #B4ABEC",
") 	c #B7ACF0",
"! 	c #8978E0",
"~ 	c #050702",
"{ 	c #7771D5",
"] 	c #7B70D6",
"^ 	c #756FDB",
"/ 	c #7870EA",
"( 	c #7973D5",
"_ 	c #7A73D0",
": 	c #766BD3",
"< 	c #4E468F",
"[ 	c #000004",
"} 	c #322F5C",
"| 	c #312F5E",
"1 	c #2E2E62",
"2 	c #504E99",
"3 	c #6C69C4",
"4 	c #776EE3",
"5 	c #4D4984",
"6 	c #040308",
"7 	c #000200",
"8 	c #0B0001",
"9 	c #060100",
"0 	c #010204",
"a 	c #746ED2",
"b 	c #7671D8",
"c 	c #4B488D",
"d 	c #000002",
"e 	c #E7DF72",
"f 	c #EADE72",
"g 	c #ECDE71",
"h 	c #C8CD28",
"i 	c #060000",
"j 	c #978FE2",
"k 	c #7871DB",
"l 	c #4A4A7E",
"m 	c #000201",
"n 	c #D4C506",
"o 	c #D5C704",
"p 	c #D5C609",
"q 	c #D8C60C",
"r 	c #D6C803",
"s 	c #D4C60B",
"t 	c #D9C70B",
"u 	c #CCC60C",
"v 	c #D2C80E",
"w 	c #DFC300",
"x 	c #D5C607",
"y 	c #857F07",
"z 	c #040000",
"A 	c #938FE3",
"B 	c #7870DD",
"C 	c #4D4787",
"D 	c #D8C60A",
"E 	c #D6CB00",
"F 	c #D8C708",
"G 	c #CAC603",
"H 	c #D7CC01",
"I 	c #DDBE0B",
"J 	c #D3CB00",
"K 	c #D1C90F",
"L 	c #D5C50D",
"M 	c #D9C50E",
"N 	c #D7C50B",
"O 	c #CFC40A",
"P 	c #CDCB07",
"Q 	c #D4CE08",
"R 	c #D3C50A",
"S 	c #D1C600",
"T 	c #D4CB04",
"U 	c #CFC704",
"V 	c #D4C90D",
"W 	c #D0C507",
"X 	c #D8CA11",
"Y 	c #D7CA09",
"Z 	c #D5C402",
"` 	c #D1C906",
" .	c #CFC406",
"..	c #D7CF12",
"+.	c #D1C10C",
"@.	c #D3CE03",
"#.	c #D3C109",
"$.	c #DCC402",
"%.	c #D2C40C",
"&.	c #D3C214",
"*.	c #DFCA01",
"=.	c #6E6262",
"-.	c #6A696F",
";.	c #C9C703",
">.	c #666757",
",.	c #736064",
"'.	c #CECA0F",
").	c #DCC903",
"!.	c #69636D",
"~.	c #6C6172",
"{.	c #5B6871",
"].	c #6A6E6F",
"^.	c #63616C",
"/.	c #D6C900",
"(.	c #D1CB07",
"_.	c #D3C30B",
":.	c #D7C908",
"<.	c #D2C101",
"[.	c #D5CF0B",
"}.	c #6C635A",
"|.	c #6C6165",
"1.	c #626A5B",
"2.	c #CFC905",
"3.	c #DCCA08",
"4.	c #D9C202",
"5.	c #D5CA10",
"6.	c #DBC907",
"7.	c #DAC708",
"8.	c #5F6769",
"9.	c #646962",
"0.	c #6E6465",
"a.	c #666279",
"b.	c #696961",
"c.	c #CEC603",
"d.	c #D4C915",
"e.	c #D6CC0A",
"f.	c #CFC70A",
"g.	c #D3CD00",
"h.	c #6C6263",
"i.	c #785C72",
"j.	c #CACB03",
"k.	c #69675A",
"l.	c #75605F",
"m.	c #D9C808",
"n.	c #C8CB0C",
"o.	c #D3C615",
"p.	c #83810A",
"q.	c #02000E",
"r.	c #9191D7",
"s.	c #7B72DD",
"t.	c #4F4687",
"u.	c #D7C405",
"v.	c #D7C501",
"w.	c #D5C00F",
"x.	c #D4CF02",
"y.	c #CFC609",
"z.	c #D7CE05",
"A.	c #CBC41B",
"B.	c #D2C806",
"C.	c #DBC309",
"D.	c #D9C902",
"E.	c #D4C804",
"F.	c #847F00",
"G.	c #030007",
"H.	c #918FD8",
"I.	c #766EDB",
"J.	c #504786",
"K.	c #010100",
"L.	c #D5C60B",
"M.	c #D5C611",
"N.	c #D4C512",
"O.	c #D5C206",
"P.	c #D6CA02",
"Q.	c #CBC201",
"R.	c #DBC611",
"S.	c #DBC90F",
"T.	c #D0C10C",
"U.	c #DAC40E",
"V.	c #D9C60A",
"W.	c #877D02",
"X.	c #060107",
"Y.	c #9794E3",
"Z.	c #4E4A87",
"`.	c #D3C606",
" +	c #D4CF13",
".+	c #D3C100",
"++	c #D5CB07",
"@+	c #D2CC06",
"#+	c #DAC508",
"$+	c #D2C306",
"%+	c #D0D000",
"&+	c #D5C500",
"*+	c #DBCA08",
"=+	c #877E00",
"-+	c #928FE0",
";+	c #7770E0",
">+	c #4A4887",
",+	c #DDC509",
"'+	c #D8BE07",
")+	c #CAC700",
"!+	c #D7CC10",
"~+	c #D3C80A",
"{+	c #CEC500",
"]+	c #D6C30D",
"^+	c #D5C70E",
"/+	c #D1CB05",
"(+	c #CCC209",
"_+	c #898404",
":+	c #080500",
"<+	c #948FE1",
"[+	c #7871E3",
"}+	c #494788",
"|+	c #000300",
"1+	c #555704",
"2+	c #565A00",
"3+	c #5B5501",
"4+	c #595400",
"5+	c #5B510A",
"6+	c #61580B",
"7+	c #5D5409",
"8+	c #5D5405",
"9+	c #544B08",
"0+	c #5D5701",
"a+	c #605503",
"b+	c #4C480B",
"c+	c #030200",
"d+	c #7771DB",
"e+	c #484685",
"f+	c #020403",
"g+	c #040007",
"h+	c #050003",
"i+	c #010101",
"j+	c #00000C",
"k+	c #060005",
"l+	c #0A0605",
"m+	c #000009",
"n+	c #9590E0",
"o+	c #494786",
"p+	c #000106",
"q+	c #000100",
"r+	c #070000",
"s+	c #000107",
"t+	c #020100",
"u+	c #020609",
"v+	c #030000",
"w+	c #000400",
"x+	c #9490DC",
"y+	c #7770D8",
"z+	c #4C498C",
"A+	c #000102",
". . + + + + + + + + + @ # $ % & * ",
"= = - - - - - - - - ; > , ' ) ! ~ ",
"{ { ] ] ] ] ] ] ] ] ^ / ( _ : < [ ",
"} } } } } } } } } } | 1 2 3 4 5 6 ",
"+ + 7 7 7 7 7 7 7 7 8 9 0 a b c d ",
"e e f f f f f f f f g h i j k l m ",
"n o p q r s t u v w x y z A B C + ",
"D E F G H I J K L M x y z A B C + ",
"N O P Q R S T U V W x y z A B C + ",
"X Y Z `  ...+.@.#.$.x y z A B C + ",
"%.&.*.=.-.;.>.,.'.).x y z A B C + ",
"p E p !.~.{.].^./.(.x y z A B C + ",
"_.:.<.[.}.|.1.2.3.4.x y z A B C + ",
"5.6.7.8.9.0.a.b.c.d.x y z A B C + ",
"e.f.g.h.i.j.k.l.m.n.o.p.q.r.s.t.d ",
"u.v.w.x.y.z.A.B.C.D.E.F.G.H.I.J.K.",
"L.M.N.O.P.Q.R.S.T.U.V.W.X.Y.B Z.+ ",
"`.x  +.+++@+#+$+%+&+*+=+z -+;+>++ ",
",+'+)+!+~+{+]+^+/+e.(+_+:+<+[+}+|+",
"1+2+3+4+5+6+7+8+9+0+a+b+c+<+d+e+f+",
"g+h+i+. j+|+7 @ [ c+k+l+m+n+{ o+p+",
"q+d + r+& s+t+d u+v+q+|+w+x+y+z+A+"};
