/* XPM */
static char * bt_close_fo_xpm[] = {
"17 22 249 2",
"  	c None",
". 	c #010000",
"+ 	c #000000",
"@ 	c #050700",
"# 	c #010004",
"$ 	c #02000A",
"% 	c #010101",
"& 	c #C7C2F8",
"* 	c #CAC8F9",
"= 	c #C4C1F8",
"- 	c #C6C4F3",
"; 	c #C9C3FF",
"> 	c #A697F6",
", 	c #060503",
"' 	c #9D98F4",
") 	c #9993F7",
"! 	c #9A9AF4",
"~ 	c #9C9FF0",
"{ 	c #9992F9",
"] 	c #68639D",
"^ 	c #423F6C",
"/ 	c #484175",
"( 	c #6C6EA1",
"_ 	c #868BDD",
": 	c #9A9CF1",
"< 	c #646198",
"[ 	c #010002",
"} 	c #010100",
"| 	c #0E0000",
"1 	c #080405",
"2 	c #9995E9",
"3 	c #9B99FA",
"4 	c #635EA1",
"5 	c #010300",
"6 	c #ECE36C",
"7 	c #DAD41C",
"8 	c #0D0000",
"9 	c #B9ACFF",
"0 	c #9C96F8",
"a 	c #64609B",
"b 	c #010200",
"c 	c #D7D302",
"d 	c #DECB02",
"e 	c #DDCD00",
"f 	c #D9CE03",
"g 	c #DDCF00",
"h 	c #E2C900",
"i 	c #DED20C",
"j 	c #D4CF04",
"k 	c #E2D000",
"l 	c #D6CD04",
"m 	c #DACF04",
"n 	c #8E8101",
"o 	c #000300",
"p 	c #B3ACF9",
"q 	c #A096F9",
"r 	c #616099",
"s 	c #030000",
"t 	c #D4CD03",
"u 	c #DFCE04",
"v 	c #DDCE01",
"w 	c #DAD108",
"x 	c #DBCF01",
"y 	c #E6C901",
"z 	c #D7CF00",
"A 	c #DFCD00",
"B 	c #E1CF01",
"C 	c #E0CE02",
"D 	c #D9D102",
"E 	c #E2D300",
"F 	c #DACD05",
"G 	c #E3C903",
"H 	c #DBCF0B",
"I 	c #D9CC02",
"J 	c #D8D003",
"K 	c #DDD200",
"L 	c #E5CF0A",
"M 	c #D2CB01",
"N 	c #DBD207",
"O 	c #D7CD00",
"P 	c #DDCE03",
"Q 	c #DED403",
"R 	c #DFCF00",
"S 	c #DECD0B",
"T 	c #DCCF00",
"U 	c #D7D10B",
"V 	c #E1C502",
"W 	c #E1D700",
"X 	c #DCCD00",
"Y 	c #DDCF0A",
"Z 	c #D6C901",
"` 	c #666761",
" .	c #6D6163",
"..	c #D3CE03",
"+.	c #666960",
"@.	c #776561",
"#.	c #D3CB08",
"$.	c #E2CA06",
"%.	c #DFCE02",
"&.	c #DDCD06",
"*.	c #E1D10A",
"=.	c #DCCC07",
"-.	c #65626B",
";.	c #656A64",
">.	c #5A6A69",
",.	c #6A6760",
"'.	c #65615E",
").	c #E2D400",
"!.	c #CED003",
"~.	c #DBD100",
"{.	c #DBCC00",
"].	c #DFD000",
"^.	c #DED000",
"/.	c #D8D000",
"(.	c #696969",
"_.	c #686168",
":.	c #6A686B",
"<.	c #DBCE03",
"[.	c #E0CF03",
"}.	c #E1D007",
"|.	c #DDCB05",
"1.	c #646665",
"2.	c #6A6166",
"3.	c #726376",
"4.	c #616564",
"5.	c #676860",
"6.	c #DECE09",
"7.	c #DCCE00",
"8.	c #DCCB01",
"9.	c #DECE00",
"0.	c #DBD500",
"a.	c #666762",
"b.	c #6C6165",
"c.	c #D0DA00",
"d.	c #6C6364",
"e.	c #715C6B",
"f.	c #E2D100",
"g.	c #DDCC02",
"h.	c #DDCF0C",
"i.	c #8B8106",
"j.	c #050102",
"k.	c #ABAEFD",
"l.	c #9C99F2",
"m.	c #676094",
"n.	c #010006",
"o.	c #E5D007",
"p.	c #E2CD00",
"q.	c #D9C800",
"r.	c #D9D407",
"s.	c #D7C809",
"t.	c #E4D200",
"u.	c #D0D202",
"v.	c #D3D303",
"w.	c #E0D000",
"x.	c #D9CD00",
"y.	c #8B8300",
"z.	c #050001",
"A.	c #AFB1FE",
"B.	c #9F9AF4",
"C.	c #686197",
"D.	c #000004",
"E.	c #E1D10C",
"F.	c #E1CB04",
"G.	c #E9CF08",
"H.	c #E2C306",
"I.	c #DDD300",
"J.	c #D9D400",
"K.	c #E1CB00",
"L.	c #DDCA0C",
"M.	c #DAD205",
"N.	c #8D8600",
"O.	c #070001",
"P.	c #B2B0FB",
"Q.	c #9B95EF",
"R.	c #686099",
"S.	c #020204",
"T.	c #DBCE04",
"U.	c #DDCB07",
"V.	c #DECB05",
"W.	c #D6CB00",
"X.	c #DFCE00",
"Y.	c #E0CC00",
"Z.	c #DAD000",
"`.	c #D5C70E",
" +	c #E5D100",
".+	c #E2CC07",
"++	c #DDD000",
"@+	c #898300",
"#+	c #060000",
"$+	c #B3B0F7",
"%+	c #A097F4",
"&+	c #695F9B",
"*+	c #000100",
"=+	c #DED300",
"-+	c #DDCA02",
";+	c #DAD500",
">+	c #D8CB01",
",+	c #DACB0E",
"'+	c #DDD400",
")+	c #DDD005",
"!+	c #DDCC03",
"~+	c #E2CF00",
"{+	c #868312",
"]+	c #070101",
"^+	c #B1ABF1",
"/+	c #A398F8",
"(+	c #69619A",
"_+	c #5A5700",
":+	c #5C5800",
"<+	c #605601",
"[+	c #5F5500",
"}+	c #635200",
"|+	c #645907",
"1+	c #5E4E01",
"2+	c #605402",
"3+	c #5A5500",
"4+	c #605400",
"5+	c #5E580C",
"6+	c #55500E",
"7+	c #030301",
"8+	c #B0ADF2",
"9+	c #676096",
"0+	c #000205",
"a+	c #000400",
"b+	c #000009",
"c+	c #000002",
"d+	c #050006",
"e+	c #040005",
"f+	c #09030D",
"g+	c #000200",
"h+	c #080300",
"i+	c #B3B2F6",
"j+	c #A398FE",
"k+	c #635F91",
"l+	c #000105",
"m+	c #040500",
"n+	c #040003",
"o+	c #000700",
"p+	c #000005",
"q+	c #000405",
"r+	c #050300",
"s+	c #040000",
"t+	c #000500",
"u+	c #04000A",
"v+	c #030009",
"w+	c #000901",
"x+	c #ADADF3",
"y+	c #9F97FE",
"z+	c #686592",
". . . . . . . . . . . + @ # . $ % ",
"& & & & & & & & & & & * = - ; > , ",
"' ' ' ' ' ' ' ' ' ' ' ) ! ~ { ] . ",
"^ ^ ^ ^ ^ ^ ^ ^ ^ ^ ^ / ( _ : < [ ",
"} } } } } } } } } } } | 1 2 3 4 5 ",
"6 6 6 6 6 6 6 6 6 6 6 7 8 9 0 a b ",
"c d e f g h i j k l m n o p q r s ",
"t u v w x y z m A B C n o p q r s ",
"D E F G H I J K L M N n o p q r s ",
"O P Q R S T z U V W X n o p q r s ",
"Y P Z `  ...+.@.#.$.%.n o p q r s ",
"&.*.=.-.;.>.,.'.).!.~.n o p q r s ",
"{.].^./.(._.:.<.X [.}.n o p q r s ",
"^.|.C 1.2.3.4.5.6.7.8.n o p q r s ",
"e 9.0.a.b.c.d.e.f.g.h.i.j.k.l.m.n.",
"o.p.q.r.s.t.u.v.h w.x.y.z.A.B.C.D.",
"X X E.F.G.H.I.J.K.L.M.N.O.P.Q.R.S.",
"T.U.V.W.X.Y.Z.`. +.+++@+#+$+%+&+*+",
"/.=+-+;+>+,+'+)+!+~+v {+]+^+/+(+*+",
"_+:+<+[+}+|+1+2+3+4+5+6+7+8+q 9+0+",
"a+b+D.c+d+D.e+f+g+S.o h+g+i+j+k+l+",
"m+g+n+o+p+q+r+s+t+u+p+v+w+x+y+z+b+"};
