/* XPM */
static char * bt_min_un_xpm[] = {
"14 22 248 2",
"  	c None",
". 	c #000102",
"+ 	c #010204",
"@ 	c #000002",
"# 	c #020204",
"$ 	c #010000",
"% 	c #050304",
"& 	c #AFABE6",
"* 	c #B5B2EB",
"= 	c #B0ADE4",
"- 	c #B2AFE6",
"; 	c #B1ACE6",
"> 	c #B1ABE9",
", 	c #AFAEEA",
"' 	c #786EDE",
") 	c #756CD9",
"! 	c #7972DC",
"~ 	c #766FD7",
"{ 	c #7B75D9",
"] 	c #7672D1",
"^ 	c #7B6ED7",
"/ 	c #312F54",
"( 	c #37365E",
"_ 	c #2E2C5E",
": 	c #2F2C63",
"< 	c #333162",
"[ 	c #2D2F58",
"} 	c #322E60",
"| 	c #030207",
"1 	c #010002",
"2 	c #030000",
"3 	c #070200",
"4 	c #070001",
"5 	c #060004",
"6 	c #000202",
"7 	c #F2EDF4",
"8 	c #A7A386",
"9 	c #E4E390",
"0 	c #E0E169",
"a 	c #E4E269",
"b 	c #E7E076",
"c 	c #E9DF70",
"d 	c #C6C2BF",
"e 	c #70726D",
"f 	c #DED137",
"g 	c #D7C80B",
"h 	c #D5C800",
"i 	c #CECA06",
"j 	c #D1C608",
"k 	c #D9C70D",
"l 	c #D6C104",
"m 	c #D9C50E",
"n 	c #D3C500",
"o 	c #D6C90B",
"p 	c #D4C303",
"q 	c #DBC307",
"r 	c #C6C4C9",
"s 	c #6C6F76",
"t 	c #DECE43",
"u 	c #D5C706",
"v 	c #D7C800",
"w 	c #D2C80F",
"x 	c #CEC80E",
"y 	c #D0C803",
"z 	c #D5C80A",
"A 	c #D6C80D",
"B 	c #CFC702",
"C 	c #D0C706",
"D 	c #D5C70C",
"E 	c #D7C702",
"F 	c #C1C1B9",
"G 	c #6D726E",
"H 	c #E1D63E",
"I 	c #D5C607",
"J 	c #D8C20A",
"K 	c #D3C409",
"L 	c #D8CA05",
"M 	c #D5C405",
"N 	c #D8C507",
"O 	c #D6C408",
"P 	c #D6CA04",
"Q 	c #D3CA03",
"R 	c #D6CA06",
"S 	c #D2C306",
"T 	c #C5C4C2",
"U 	c #6D7276",
"V 	c #DDD13F",
"W 	c #D6C601",
"X 	c #DDC604",
"Y 	c #DACA03",
"Z 	c #D5C704",
"` 	c #D7C908",
" .	c #D9C900",
"..	c #D6C70C",
"+.	c #D7CA02",
"@.	c #D7C70F",
"#.	c #D6C807",
"$.	c #DBCA0B",
"%.	c #C9C7CA",
"&.	c #6B6E73",
"*.	c #DCD040",
"=.	c #D7CA00",
"-.	c #D7C400",
";.	c #D1BF17",
">.	c #CCC805",
",.	c #CFCB07",
"'.	c #CEC60B",
").	c #D2C713",
"!.	c #D1C500",
"~.	c #D7C606",
"{.	c #D4C10B",
"].	c #D7C50B",
"^.	c #C5C3C4",
"/.	c #6C6F66",
"(.	c #E3D831",
"_.	c #D7C809",
":.	c #D4C603",
"<.	c #D4CD0B",
"[.	c #DDC407",
"}.	c #D9C30D",
"|.	c #D9C413",
"1.	c #DBC80A",
"2.	c #D8C20C",
"3.	c #DBC704",
"4.	c #D9C809",
"5.	c #D6C80F",
"6.	c #C7C1CF",
"7.	c #707070",
"8.	c #E1D335",
"9.	c #D1C308",
"0.	c #D7CF02",
"a.	c #C5C411",
"b.	c #D8C604",
"c.	c #D6C708",
"d.	c #D4CB02",
"e.	c #CEC005",
"f.	c #DDCE03",
"g.	c #D6C307",
"h.	c #D4C601",
"i.	c #D2C804",
"j.	c #C8C2C6",
"k.	c #737369",
"l.	c #E0CD4A",
"m.	c #D4CA09",
"n.	c #CBC309",
"o.	c #7C6460",
"p.	c #66676C",
"q.	c #636766",
"r.	c #686963",
"s.	c #75666B",
"t.	c #C8C90B",
"u.	c #D3C711",
"v.	c #D7C80D",
"w.	c #D6C908",
"x.	c #C4C7C0",
"y.	c #6E706B",
"z.	c #E1D245",
"A.	c #CFCC05",
"B.	c #CECB0A",
"C.	c #7C5D63",
"D.	c #696566",
"E.	c #65645F",
"F.	c #69655A",
"G.	c #746464",
"H.	c #C9C905",
"I.	c #BFBED0",
"J.	c #727176",
"K.	c #DECF36",
"L.	c #D2C908",
"M.	c #D2CB00",
"N.	c #CECA07",
"O.	c #D1C807",
"P.	c #CFCA0C",
"Q.	c #D1CE07",
"R.	c #CCC20B",
"S.	c #DCCE09",
"T.	c #D6C10C",
"U.	c #D7C607",
"V.	c #D5C60B",
"W.	c #C8C9BB",
"X.	c #6E6D68",
"Y.	c #E3D141",
"Z.	c #D0C400",
"`.	c #DACC0B",
" +	c #D3C316",
".+	c #DAC305",
"++	c #D7C30C",
"@+	c #D7C412",
"#+	c #D4C20A",
"$+	c #D7C604",
"%+	c #D1C710",
"&+	c #C6C8B2",
"*+	c #736D7B",
"=+	c #E2CF44",
"-+	c #D6CB11",
";+	c #D2C400",
">+	c #D5C901",
",+	c #D6CB00",
"'+	c #D2C505",
")+	c #D4C800",
"!+	c #D3C407",
"~+	c #C4C1BC",
"{+	c #DED240",
"]+	c #CCC908",
"^+	c #CCC700",
"/+	c #D5CC0D",
"(+	c #CFC905",
"_+	c #D1C800",
":+	c #D0C50B",
"<+	c #D5C903",
"[+	c #D4C60E",
"}+	c #D4C508",
"|+	c #D7C509",
"1+	c #8D8988",
"2+	c #575958",
"3+	c #9D9D00",
"4+	c #5E5709",
"5+	c #5C5306",
"6+	c #584B00",
"7+	c #605503",
"8+	c #5C4F01",
"9+	c #5E5005",
"0+	c #5C5006",
"a+	c #5B5501",
"b+	c #595402",
"c+	c #5B5605",
"d+	c #585007",
"e+	c #08060B",
"f+	c #000302",
"g+	c #0C0000",
"h+	c #030002",
"i+	c #040000",
"j+	c #070000",
"k+	c #000004",
"l+	c #060000",
"m+	c #030104",
"n+	c #000200",
"o+	c #000300",
"p+	c #000303",
"q+	c #000307",
"r+	c #090008",
"s+	c #000106",
"t+	c #000005",
"u+	c #020307",
"v+	c #010008",
"w+	c #000508",
"x+	c #000100",
"y+	c #050004",
". + @ # $ % $ $ $ $ $ $ $ $ ",
"& * = - ; > , , , , , , , , ",
"' ) ! ~ { ] ^ ^ ^ ^ ^ ^ ^ ^ ",
"/ ( _ : < [ } } } } } } } } ",
"| 1 2 3 4 5 6 6 6 6 6 6 6 6 ",
"7 8 9 0 a b c c c c c c c c ",
"d e f g h i j k l m n o p q ",
"r s t u v w x y z A B C D E ",
"F G H I J K L M N O P Q R S ",
"T U V W X Y Z `  ...+.@.#.$.",
"%.&.*.=.-.;.>.,.'.).!.~.{.].",
"^./.(._.:.<.[.}.|.1.2.3.4.5.",
"6.7.8.9.0.a.b.c.d.e.f.g.h.i.",
"j.k.l.m.n.o.p.q.r.s.t.u.v.w.",
"x.y.z.A.B.C.D.E.F.G.H.5._.h.",
"I.J.K.L.M.N.O.P.Q.R.S.T.U.V.",
"W.X.Y.Z.`. +.+++@+g #+$+z %+",
"&+*+=+-+;+c.>+,+'+5.)+=.!+u ",
"~+X.{+]+^+/+(+L._+:+<+[+}+|+",
"1+2+3+4+5+6+7+8+9+0+a+b+c+d+",
"e+f+g+h+i+j+k+2 l+m+n+o+p+o+",
"$ q+r+s+o+t+o+u+$ v+n+w+x+y+"};
