/* XPM */
static char * bt_max_un_xpm[] = {
"13 22 205 2",
"  	c None",
". 	c #000000",
"+ 	c #010000",
"@ 	c #AEAEEC",
"# 	c #B1ACEC",
"$ 	c #7A6FD5",
"% 	c #7771D5",
"& 	c #322F5C",
"* 	c #000100",
"= 	c #EADE72",
"- 	c #E7DF72",
"; 	c #D7C607",
"> 	c #CFCC03",
", 	c #D6C506",
"' 	c #DACA03",
") 	c #D7C606",
"! 	c #DAC10D",
"~ 	c #D5CE04",
"{ 	c #D3C30B",
"] 	c #CAC708",
"^ 	c #D7CA00",
"/ 	c #DAC708",
"( 	c #D4C10F",
"_ 	c #D4C510",
": 	c #D5C301",
"< 	c #D3C905",
"[ 	c #D8C306",
"} 	c #D2C30E",
"| 	c #D6CC0A",
"1 	c #D3C409",
"2 	c #CBC703",
"3 	c #D8C90E",
"4 	c #E1C607",
"5 	c #D7C10C",
"6 	c #D5C607",
"7 	c #D2C804",
"8 	c #D4C506",
"9 	c #D5C615",
"0 	c #DDC509",
"a 	c #CFCA0E",
"b 	c #CAC207",
"c 	c #D7D100",
"d 	c #D0C805",
"e 	c #DBC011",
"f 	c #D5C30B",
"g 	c #CFCB07",
"h 	c #D9CF0E",
"i 	c #CCC00C",
"j 	c #DACB00",
"k 	c #D3C907",
"l 	c #D4CC00",
"m 	c #D1C501",
"n 	c #6E6B66",
"o 	c #696864",
"p 	c #5D6164",
"q 	c #61695C",
"r 	c #716861",
"s 	c #6B6559",
"t 	c #6C6A5D",
"u 	c #C9BF06",
"v 	c #D9CC02",
"w 	c #D8C602",
"x 	c #D1C906",
"y 	c #D2C514",
"z 	c #D2C70D",
"A 	c #60646D",
"B 	c #6A6965",
"C 	c #67676F",
"D 	c #666B65",
"E 	c #6B6267",
"F 	c #6F6765",
"G 	c #5C626E",
"H 	c #D4CB0E",
"I 	c #D6C70A",
"J 	c #D8C507",
"K 	c #D4C60D",
"L 	c #DAC617",
"M 	c #DECC00",
"N 	c #67625C",
"O 	c #D3CC0A",
"P 	c #CFC40A",
"Q 	c #D2C600",
"R 	c #DCC517",
"S 	c #D5C609",
"T 	c #67646F",
"U 	c #D4C802",
"V 	c #D5CA10",
"W 	c #D7C00E",
"X 	c #D5C706",
"Y 	c #D7C412",
"Z 	c #666960",
"` 	c #D3C606",
" .	c #D7C40E",
"..	c #D2C507",
"+.	c #D4C810",
"@.	c #DFC60A",
"#.	c #696768",
"$.	c #D9C900",
"%.	c #D0C509",
"&.	c #DAC701",
"*.	c #D4CA08",
"=.	c #D5CB00",
"-.	c #636679",
";.	c #D9C60A",
">.	c #DDC407",
",.	c #D8C800",
"'.	c #D1C703",
").	c #CCCD03",
"!.	c #59666C",
"~.	c #D9C800",
"{.	c #D6C60F",
"].	c #DCCA08",
"^.	c #DAC40F",
"/.	c #D2C80E",
"(.	c #CEC707",
"_.	c #766166",
":.	c #C4C603",
"<.	c #CED10E",
"[.	c #D2C400",
"}.	c #D7C30C",
"|.	c #C4CB0C",
"1.	c #7E5F65",
"2.	c #D1CB03",
"3.	c #D8C40D",
"4.	c #DDC200",
"5.	c #D8CB03",
"6.	c #CBC50D",
"7.	c #6F6367",
"8.	c #71685F",
"9.	c #61646B",
"0.	c #676566",
"a.	c #666666",
"b.	c #6B6663",
"c.	c #70606D",
"d.	c #C4CC07",
"e.	c #CFCC0B",
"f.	c #D5C404",
"g.	c #D3C413",
"h.	c #DACF04",
"i.	c #CBC60A",
"j.	c #CEC600",
"k.	c #DAC806",
"l.	c #D5CA00",
"m.	c #D3C30E",
"n.	c #DBCD00",
"o.	c #D4C304",
"p.	c #D5C307",
"q.	c #D7CA0A",
"r.	c #D0C605",
"s.	c #CDC200",
"t.	c #D5C70E",
"u.	c #D3C615",
"v.	c #D7CA09",
"w.	c #D3C500",
"x.	c #D4C60E",
"y.	c #D1C60C",
"z.	c #D6CD02",
"A.	c #D4CA06",
"B.	c #CEC307",
"C.	c #D7C90E",
"D.	c #D8C40B",
"E.	c #D8C707",
"F.	c #DBC50F",
"G.	c #D8C509",
"H.	c #D5C913",
"I.	c #D2C811",
"J.	c #D0C706",
"K.	c #CFC501",
"L.	c #D1C30A",
"M.	c #595307",
"N.	c #5A5008",
"O.	c #5B5507",
"P.	c #585100",
"Q.	c #565409",
"R.	c #5C560A",
"S.	c #555A00",
"T.	c #555900",
"U.	c #595003",
"V.	c #5B5501",
"W.	c #5E5B00",
"X.	c #565505",
"Y.	c #565805",
"Z.	c #00000A",
"`.	c #000002",
" +	c #000500",
".+	c #030102",
"++	c #00020A",
"@+	c #010100",
"#+	c #000200",
"$+	c #000009",
"%+	c #070300",
"&+	c #040000",
"*+	c #040007",
"=+	c #040002",
"-+	c #060100",
";+	c #070206",
">+	c #000300",
",+	c #040005",
"'+	c #060000",
")+	c #04010A",
"!+	c #000302",
"~+	c #000301",
"{+	c #000005",
"]+	c #030400",
"^+	c #010007",
". . . . . . . . + + + + + ",
"@ @ @ @ @ @ @ @ # # # # # ",
"$ $ $ $ $ $ $ $ % % % % % ",
"& & & & & & & & & & & & & ",
"* * * * * * * * . . . . . ",
"= = = = = = = = - - - - - ",
"; > , ' ) ! ~ { ] ^ / ( _ ",
": < [ } | 1 2 3 4 5 6 7 ^ ",
"8 9 0 a b c d e f g h i j ",
"k l m n o p q r s t u v w ",
"x y z A B C D E F G H I J ",
"K L M N O P Q R S T U V W ",
"X Y , Z `  ...+.@.#.$.%.&.",
"*.=.< -.;.>.,.'.).!.~.{.].",
"^./.(._.:.<.[.}.|.1.2.I 3.",
"4.5.6.7.8.9.0.a.b.c.d.e._ ",
"f.g.h.i.m j.k.J l.m.n.o.p.",
"q.r.s.*.t.u.` v.w.x.y.z.A.",
"B.C.v.D.E.F.: G.H.I.J.K.L.",
"M.N.O.P.Q.R.S.T.U.V.W.X.Y.",
"Z.`. +.+++@+#+$+%+&+*+=+-+",
". ;+>+,+#+'+)+'+!+~+{+]+^+"};
