/* XPM */
static char * bt_min_fo_xpm[] = {
"14 22 242 2",
"  	c None",
". 	c #010204",
"+ 	c #000200",
"@ 	c #020305",
"# 	c #000000",
"$ 	c #010002",
"% 	c #030002",
"& 	c #060000",
"* 	c #010000",
"= 	c #C6C3FC",
"- 	c #C6C4F5",
"; 	c #C4C0FD",
"> 	c #C7C1FF",
", 	c #C9C4FA",
"' 	c #CAC5FB",
") 	c #C5BDF9",
"! 	c #C7C2F8",
"~ 	c #9B96E8",
"{ 	c #9E99ED",
"] 	c #A29BF8",
"^ 	c #9B95F7",
"/ 	c #9D9BEF",
"( 	c #9A99E5",
"_ 	c #9C9DED",
": 	c #9E99F5",
"< 	c #424264",
"[ 	c #41406A",
"} 	c #3E3F5B",
"| 	c #424169",
"1 	c #404171",
"2 	c #3D406D",
"3 	c #3F426B",
"4 	c #413E6B",
"5 	c #040601",
"6 	c #010012",
"7 	c #040005",
"8 	c #070008",
"9 	c #070000",
"0 	c #020100",
"a 	c #F3EFEC",
"b 	c #A69E91",
"c 	c #E6E77F",
"d 	c #E5E664",
"e 	c #EBE76C",
"f 	c #E9E375",
"g 	c #E9E172",
"h 	c #ECE36C",
"i 	c #C7C4CD",
"j 	c #6A6D72",
"k 	c #E6D434",
"l 	c #DECA07",
"m 	c #DED107",
"n 	c #D4CC00",
"o 	c #DBD200",
"p 	c #D7CE00",
"q 	c #DACF01",
"r 	c #E1D207",
"s 	c #DACB00",
"t 	c #DACA01",
"u 	c #DFD200",
"v 	c #DACD05",
"w 	c #C5C3C6",
"x 	c #6B706A",
"y 	c #ECD83B",
"z 	c #E1CC00",
"A 	c #E0CC00",
"B 	c #E0CC0B",
"C 	c #E1CA00",
"D 	c #E0D200",
"E 	c #DACA03",
"F 	c #DECC08",
"G 	c #DCCA04",
"H 	c #E2CF06",
"I 	c #DECB03",
"J 	c #E1CE06",
"K 	c #C4C4C4",
"L 	c #6A7267",
"M 	c #E3D632",
"N 	c #DECF00",
"O 	c #DFCE04",
"P 	c #E0CF03",
"Q 	c #E1CC03",
"R 	c #DECE00",
"S 	c #DFD100",
"T 	c #D9CD00",
"U 	c #C2BFC6",
"V 	c #6D7872",
"W 	c #E0D53B",
"X 	c #DAD203",
"Y 	c #DAD20F",
"Z 	c #D3CC00",
"` 	c #DCCD02",
" .	c #DCD002",
"..	c #D8CD01",
"+.	c #D9D102",
"@.	c #D4C90B",
"#.	c #DCD103",
"$.	c #DBCD08",
"%.	c #C3C0D1",
"&.	c #6B756A",
"*.	c #E2D82B",
"=.	c #DBD100",
"-.	c #DDD300",
";.	c #DACE00",
">.	c #DFCD07",
",.	c #D9D100",
"'.	c #D7CD0B",
").	c #D8D100",
"!.	c #D9CF00",
"~.	c #DDD101",
"{.	c #DFCF00",
"].	c #DBC708",
"^.	c #C4C4C6",
"/.	c #6A6D74",
"(.	c #ECD934",
"_.	c #E0C804",
":.	c #E2CA08",
"<.	c #E6CE08",
"[.	c #E3C902",
"}.	c #E0CB02",
"|.	c #E2CB09",
"1.	c #E8D403",
"2.	c #DDC702",
"3.	c #E1D000",
"4.	c #DDCE00",
"5.	c #DED202",
"6.	c #C7C8BA",
"7.	c #6E6E7A",
"8.	c #EDD736",
"9.	c #DFCA00",
"0.	c #E1D400",
"a.	c #D0C60D",
"b.	c #D8D202",
"c.	c #D6D100",
"d.	c #D9C610",
"e.	c #E4D402",
"f.	c #DDCD00",
"g.	c #D7CC00",
"h.	c #C8C0CD",
"i.	c #70726D",
"j.	c #E5D635",
"k.	c #DDD601",
"l.	c #CAD300",
"m.	c #726763",
"n.	c #696461",
"o.	c #656668",
"p.	c #6B6954",
"q.	c #75625E",
"r.	c #D3CE10",
"s.	c #D9CC04",
"t.	c #E0D000",
"u.	c #C5C5C3",
"v.	c #706A6E",
"w.	c #E6D92B",
"x.	c #DCD106",
"y.	c #DAD404",
"z.	c #6B5F6B",
"A.	c #696961",
"B.	c #626669",
"C.	c #6A6754",
"D.	c #745F64",
"E.	c #D2D00C",
"F.	c #D9CE00",
"G.	c #E1D300",
"H.	c #DDCB07",
"I.	c #C3C3C1",
"J.	c #766E7B",
"K.	c #DBC80C",
"L.	c #E9CF00",
"M.	c #DBD400",
"N.	c #D6CD06",
"O.	c #DCCF05",
"P.	c #D9C30E",
"Q.	c #E7D209",
"R.	c #E1CD00",
"S.	c #DBCA00",
"T.	c #DCD105",
"U.	c #C6CABB",
"V.	c #6C6A75",
"W.	c #E1DA34",
"X.	c #DAD600",
"Y.	c #E3CB05",
"Z.	c #E0CE00",
"`.	c #DFC902",
" +	c #E5D200",
".+	c #DEC900",
"++	c #E4D204",
"@+	c #DDCF00",
"#+	c #726F78",
"$+	c #DED636",
"%+	c #D5D100",
"&+	c #DBD304",
"*+	c #D7CE07",
"=+	c #D6CE00",
"-+	c #D7CD00",
";+	c #DBCC0D",
">+	c #DCC610",
",+	c #C5C3C8",
"'+	c #746778",
")+	c #E9D93E",
"!+	c #DCD100",
"~+	c #E2CD04",
"{+	c #DAD000",
"]+	c #DFCE02",
"^+	c #D9CC00",
"/+	c #DCD000",
"(+	c #DBD209",
"_+	c #D5CB07",
":+	c #DACF03",
"<+	c #8B8B81",
"[+	c #595450",
"}+	c #A7A000",
"|+	c #625300",
"1+	c #655406",
"2+	c #565006",
"3+	c #625900",
"4+	c #635401",
"5+	c #625604",
"6+	c #615606",
"7+	c #5E5605",
"8+	c #5A5400",
"9+	c #605A04",
"0+	c #030300",
"a+	c #090000",
"b+	c #000100",
"c+	c #04020F",
"d+	c #000304",
"e+	c #020400",
"f+	c #000004",
"g+	c #00000B",
"h+	c #050308",
"i+	c #010004",
"j+	c #000403",
"k+	c #030005",
"l+	c #000603",
"m+	c #000002",
"n+	c #040500",
"o+	c #0A0009",
"p+	c #000103",
"q+	c #030200",
"r+	c #030000",
"s+	c #020200",
". + @ # $ % & * * * * * * * ",
"= - ; > , ' ) ! ! ! ! ! ! ! ",
"~ { ] ^ / ( _ : : : : : : : ",
"< [ } | 1 2 3 4 4 4 4 4 4 4 ",
"5 6 7 8 & & 9 0 0 0 0 0 0 0 ",
"a b c d e f g h h h h h h h ",
"i j k l m n o p q r s t u v ",
"w x y z A B C D E F G H I J ",
"K L M N O P z Q A R S N T S ",
"U V W X Y Z q `  ...+.@.#.$.",
"%.&.*.=.-.;.>.,.'.).!.~.{.].",
"^./.(._.:.<.[.}.|.1.2.3.4.5.",
"6.7.8.9.0.a.b.c.=.d.e.f.g.+.",
"h.i.j.k.l.m.n.o.p.q.r.s.t.l ",
"u.v.w.x.y.z.A.B.C.D.E.F.G.H.",
"I.J.j.K.L.M.N.x.O.P.Q.R.S.T.",
"U.V.W.X.Y.T Z.`.`. +.+++@+ .",
"^.#+$+%+f.&+@+&+*+=+-+;+O >+",
",+'+)+!+~+{+]+^+/+{+(+_+X :+",
"<+[+}+|+1+2+3+4+5+6+7+8+8+9+",
"0++ a+b+c+d+b+e+f+g+* h+* i+",
"# j+k+l+m+n+o+p+f+q+r+r+s+f+"};
