/* XPM */
static char * bt_max_fo_xpm[] = {
"13 22 205 2",
"  	c None",
". 	c #010000",
"+ 	c #000200",
"@ 	c #C7C2F8",
"# 	c #9E99F5",
"$ 	c #9E97F4",
"% 	c #9D98F4",
"& 	c #413E6B",
"* 	c #3E416C",
"= 	c #423F6C",
"- 	c #020100",
"; 	c #040000",
"> 	c #010100",
", 	c #ECE36C",
"' 	c #E9E46C",
") 	c #DACF01",
"! 	c #DBD004",
"~ 	c #DECB02",
"{ 	c #DCD000",
"] 	c #D2D100",
"^ 	c #DFD200",
"/ 	c #DCCA06",
"( 	c #DED109",
"_ 	c #DCCC00",
": 	c #E2CF00",
"< 	c #DFC703",
"[ 	c #DBD200",
"} 	c #DFCC03",
"| 	c #DFCD00",
"1 	c #DECF00",
"2 	c #E4CB00",
"3 	c #DAC70B",
"4 	c #E3D405",
"5 	c #E4CA04",
"6 	c #DCC700",
"7 	c #DAD000",
"8 	c #DBCF01",
"9 	c #DDD10B",
"0 	c #DFCD01",
"a 	c #DBD300",
"b 	c #E2D100",
"c 	c #DBCD00",
"d 	c #DACC00",
"e 	c #E5D200",
"f 	c #D8D306",
"g 	c #D3C905",
"h 	c #E1D200",
"i 	c #DACF03",
"j 	c #DDCF00",
"k 	c #CBD000",
"l 	c #E5D800",
"m 	c #D8CC06",
"n 	c #DCC900",
"o 	c #DDD200",
"p 	c #DDD005",
"q 	c #D6CE00",
"r 	c #656559",
"s 	c #6B6863",
"t 	c #66636E",
"u 	c #686B62",
"v 	c #5D6568",
"w 	c #686570",
"x 	c #72655D",
"y 	c #D2C504",
"z 	c #DED401",
"A 	c #DFCC0D",
"B 	c #E1CE00",
"C 	c #DBD000",
"D 	c #D9D200",
"E 	c #61696B",
"F 	c #696468",
"G 	c #686667",
"H 	c #626761",
"I 	c #5E6762",
"J 	c #68656E",
"K 	c #6A6760",
"L 	c #DBCE0D",
"M 	c #DCD100",
"N 	c #D9CC00",
"O 	c #DDD006",
"P 	c #DCCB09",
"Q 	c #E2CD10",
"R 	c #6C5F79",
"S 	c #DBCD0A",
"T 	c #E4D600",
"U 	c #DECF04",
"V 	c #DCD200",
"W 	c #DDCA01",
"X 	c #656472",
"Y 	c #DDCE01",
"Z 	c #D3CD09",
"` 	c #E0D000",
" .	c #DFCB00",
"..	c #6C685C",
"+.	c #DDC702",
"@.	c #E1CA00",
"#.	c #DCCB02",
"$.	c #DAD400",
"%.	c #DFCE02",
"&.	c #646962",
"*.	c #DEC90C",
"=.	c #DECE00",
"-.	c #DBD600",
";.	c #DFD000",
">.	c #DCCC05",
",.	c #DFD100",
"'.	c #5D6567",
").	c #DDD300",
"!.	c #DED202",
"~.	c #DCCF07",
"{.	c #D7CB03",
"].	c #E2CC00",
"^.	c #626665",
"/.	c #E4CF00",
"(.	c #DDCC00",
"_.	c #D7CF0C",
":.	c #E0C900",
"<.	c #DFD502",
"[.	c #706255",
"}.	c #CCD007",
"|.	c #E0D404",
"1.	c #DBCB00",
"2.	c #E6CD00",
"3.	c #D7D006",
"4.	c #696460",
"5.	c #D4D400",
"6.	c #DFC808",
"7.	c #D7CC0E",
"8.	c #DFD30F",
"9.	c #CDCC00",
"0.	c #6A665D",
"a.	c #706B67",
"b.	c #686157",
"c.	c #69666F",
"d.	c #68656C",
"e.	c #5C6C6C",
"f.	c #766367",
"g.	c #D2C804",
"h.	c #E9D004",
"i.	c #E3CD00",
"j.	c #E1C700",
"k.	c #E8D000",
"l.	c #DCCB0B",
"m.	c #DECA07",
"n.	c #E0CB00",
"o.	c #E1CE0F",
"p.	c #E0CD00",
"q.	c #DFCE0E",
"r.	c #CDD300",
"s.	c #DED500",
"t.	c #DFC70D",
"u.	c #E3D000",
"v.	c #D9D301",
"w.	c #DACD05",
"x.	c #DCCE00",
"y.	c #DECD00",
"z.	c #DFCF00",
"A.	c #DBC905",
"B.	c #E0CF00",
"C.	c #E3D100",
"D.	c #DCD407",
"E.	c #DACA03",
"F.	c #DDC90A",
"G.	c #D7D000",
"H.	c #DACF00",
"I.	c #DCCA00",
"J.	c #E1CF0B",
"K.	c #DCD103",
"L.	c #D5CE02",
"M.	c #DAD40E",
"N.	c #D3CB00",
"O.	c #DED000",
"P.	c #E0D200",
"Q.	c #5C5505",
"R.	c #5F5702",
"S.	c #5D550A",
"T.	c #635204",
"U.	c #625707",
"V.	c #5A5300",
"W.	c #5D5200",
"X.	c #5C5900",
"Y.	c #62560E",
"Z.	c #635703",
"`.	c #5C540B",
" +	c #595300",
".+	c #5F5600",
"++	c #070101",
"@+	c #000100",
"#+	c #030000",
"$+	c #000500",
"%+	c #020001",
"&+	c #000400",
"*+	c #000300",
"=+	c #030002",
"-+	c #000206",
";+	c #01000E",
">+	c #03000B",
",+	c #000600",
"'+	c #030502",
")+	c #010006",
"!+	c #0A0004",
"~+	c #03000D",
"{+	c #060000",
"]+	c #050000",
"^+	c #070000",
". + + + + + + + + . . . . ",
"@ @ @ @ @ @ @ @ @ @ @ @ @ ",
"# $ $ $ $ $ $ $ $ % % % % ",
"& * * * * * * * * = = = = ",
"- ; ; ; ; ; ; ; ; > > > > ",
", ' ' ' ' ' ' ' ' , , , , ",
") ! ~ { ] ^ / ( _ : < [ } ",
"| 1 2 3 4 5 6 7 8 9 0 a b ",
"c d e f g ~ h i j k l m n ",
"o p q r s t u v w x y z A ",
"B C D E F G H I J K L M N ",
"O P Q R S T U V W X P Y ! ",
"Z `  ...+.@.#.$.%.&.*.=.-.",
";.>.,.'.).!.~.{.].^./.(._.",
";.:.<.[.}.|.1.2.3.4.5.6.} ",
"7.8.9.0.a.b.c.d.e.f.g.h.i.",
"7 j.k.l.m.n.o.p.q.r.s.t.j ",
"u.v.w.x.y.z.A.B.C.D.E.F.,.",
"C G.H.I.J.K.L.M.N.1.O.P.c ",
"Q.R.S.T.U.V.W.X.Y.Z.`. +.+",
". ++@+#++ $+%+&+*+=+&+-+;+",
"+ >+,+'+*+)+!+~+{+]+@++ ^+"};
