/* XPM */
static char * bt_tl_un_xpm[] = {
"5 22 52 1",
" 	c None",
".	c #000200",
"+	c #00000B",
"@	c #000106",
"#	c #000005",
"$	c #000104",
"%	c #000002",
"&	c #BBB4E8",
"*	c #B0AAE8",
"=	c #B7B2F5",
"-	c #B4AFEF",
";	c #9C93E4",
">	c #776CD4",
",	c #7A71DE",
"'	c #736BCE",
")	c #020400",
"!	c #9289D8",
"~	c #7C75D2",
"{	c #524D9F",
"]	c #3B3D66",
"^	c #9C93EE",
"/	c #7770CF",
"(	c #413F80",
"_	c #000201",
":	c #9288E8",
"<	c #7A72D9",
"[	c #4A4690",
"}	c #000007",
"|	c #948FE3",
"1	c #7871D9",
"2	c #4C4787",
"3	c #948FDF",
"4	c #7871DB",
"5	c #494484",
"6	c #000100",
"7	c #928DDD",
"8	c #7C75DF",
"9	c #4D4888",
"0	c #9590E0",
"a	c #746DD7",
"b	c #4E4989",
"c	c #010207",
"d	c #918CDC",
"e	c #4B4686",
"f	c #030504",
"g	c #9792E2",
"h	c #4A4585",
"i	c #938EDE",
"j	c #7B74DE",
"k	c #504B8B",
"l	c #7770DA",
"m	c #756ED8",
".+@#$",
"%&*=-",
"#;>,'",
")!~{]",
"@^/($",
"_:<[}",
"%|12@",
"%|12@",
"%|12@",
"%|12@",
"%|12@",
"%|12@",
"%|12@",
"%|12@",
"#3456",
"#7896",
"@0ab6",
"cd8ef",
"#gah6",
"#ijk6",
"@3lb6",
"@0mb6"};
