/* XPM */
static char * bt_tl_fo_xpm[] = {
"5 22 56 1",
" 	c None",
".	c #030500",
"+	c #030207",
"@	c #000004",
"#	c #000100",
"$	c #000308",
"%	c #030305",
"&	c #CAC2F5",
"*	c #CAC4FF",
"=	c #C7C5F7",
"-	c #C8C4FF",
";	c #000008",
">	c #BCB1FF",
",	c #9E92F8",
"'	c #A199EE",
")	c #9D97F1",
"!	c #000200",
"~	c #B2ABF1",
"{	c #A197F8",
"]	c #6D68A8",
"^	c #53527C",
"/	c #000503",
"(	c #B6B0FA",
"_	c #A297FD",
":	c #5A588A",
"<	c #000107",
"[	c #000300",
"}	c #B1ABF1",
"|	c #A196FE",
"1	c #646294",
"2	c #000400",
"3	c #B3ADF5",
"4	c #9E97F4",
"5	c #63629B",
"6	c #000105",
"7	c #B4AEF6",
"8	c #000201",
"9	c #B5ADF6",
"0	c #A19AFA",
"a	c #605C99",
"b	c #020401",
"c	c #B3ABF4",
"d	c #A099F9",
"e	c #66629F",
"f	c #010302",
"g	c #B8B0F9",
"h	c #9E97F7",
"i	c #64609D",
"j	c #9C95F5",
"k	c #625E9B",
"l	c #020403",
"m	c #B1A9F2",
"n	c #9D96F6",
"o	c #6965A2",
"p	c #9F98F8",
"q	c #635F9C",
".+@#$",
"%&*=-",
";>,')",
"!~{]^",
"/(_:<",
"[}|12",
"@345#",
"6345#",
"6745#",
"6745#",
"@345#",
"@345#",
"6345#",
"6745#",
"890ab",
"#cde#",
"fghi#",
"#cje!",
"#g0kb",
"#9ha!",
"lmno#",
"#gpq#"};
