/* XPM */
static char * csd_un_xpm[] = {
"5 5 25 1",
" 	c None",
".	c #050700",
"+	c #010004",
"@	c #010000",
"#	c #02000A",
"$	c #010101",
"%	c #C4C1F8",
"&	c #C6C4F3",
"*	c #C9C3FF",
"=	c #A697F6",
"-	c #060503",
";	c #9A9AF4",
">	c #9C9FF0",
",	c #9992F9",
"'	c #68639D",
")	c #6C6EA1",
"!	c #868BDD",
"~	c #9A9CF1",
"{	c #646198",
"]	c #010002",
"^	c #080405",
"/	c #9995E9",
"(	c #9B99FA",
"_	c #635EA1",
":	c #010300",
".+@#$",
"%&*=-",
";>,'@",
")!~{]",
"^/(_:"};
