/* XPM */
static char * cse_un_xpm[] = {
"5 5 23 1",
" 	c None",
".	c #000200",
"+	c #00000B",
"@	c #000106",
"#	c #000005",
"$	c #000104",
"%	c #000002",
"&	c #BBB4E8",
"*	c #B0AAE8",
"=	c #B7B2F5",
"-	c #B4AFEF",
";	c #9C93E4",
">	c #776CD4",
",	c #7A71DE",
"'	c #736BCE",
")	c #020400",
"!	c #9289D8",
"~	c #7C75D2",
"{	c #524D9F",
"]	c #3B3D66",
"^	c #9C93EE",
"/	c #7770CF",
"(	c #413F80",
".+@#$",
"%&*=-",
"#;>,'",
")!~{]",
"@^/($"};
