/* XPM */
static char * sep_un_xpm[] = {
"5 22 42 1",
" 	c None",
".	c #000200",
"+	c #B1ACEC",
"@	c #7B70D8",
"#	c #322F5A",
"$	c #000100",
"%	c #F3F2F7",
"&	c #F3EFEC",
"*	c #A69E91",
"=	c #FFFFFF",
"-	c #EFEFEF",
";	c #C7C4CD",
">	c #6A6D72",
",	c #C5C3C6",
"'	c #6B706A",
")	c #C4C4C4",
"!	c #6A7267",
"~	c #C2BFC6",
"{	c #6D7872",
"]	c #C3C0D1",
"^	c #6B756A",
"/	c #C4C4C6",
"(	c #6A6D74",
"_	c #C7C8BA",
":	c #6E6E7A",
"<	c #C8C0CD",
"[	c #70726D",
"}	c #C5C5C3",
"|	c #706A6E",
"1	c #F0F0F0",
"2	c #C3C3C1",
"3	c #766E7B",
"4	c #C6CABB",
"5	c #6C6A75",
"6	c #726F78",
"7	c #C5C3C8",
"8	c #746778",
"9	c #A9A9A9",
"0	c #8B8B81",
"a	c #595450",
"b	c #E0DEDE",
"c	c #000000",
".....",
"+++++",
"@@@@@",
"#####",
"$$$$$",
"%&*=%",
"-;>=-",
"-,'=-",
"-)!=-",
"-~{=-",
"-]^=-",
"-/(=-",
"-_:=-",
"-<[=-",
"-}|=-",
"123=1",
"-45=-",
"1/6=1",
"-78=-",
"90ab9",
"ccccc",
"ccccc"};
