/* XPM */
static char * title_fo_xpm[] = {
"16 22 10 1",
" 	c None",
".	c #000000",
"+	c #C8C3F9",
"@	c #9E97F4",
"#	c #404269",
"$	c #000100",
"%	c #F4F2F3",
"&	c #EFEFEF",
"*	c #F0F0F0",
"=	c #A9A9A9",
"................",
"++++++++++++++++",
"@@@@@@@@@@@@@@@@",
"################",
"$$$$$$$$$$$$$$$$",
"%%%%%%%%%%%%%%%%",
"&&&&&&&&&&&&&&&&",
"&&&&&&&&&&&&&&&&",
"&&&&&&&&&&&&&&&&",
"&&&&&&&&&&&&&&&&",
"&&&&&&&&&&&&&&&&",
"&&&&&&&&&&&&&&&&",
"&&&&&&&&&&&&&&&&",
"&&&&&&&&&&&&&&&&",
"&&&&&&&&&&&&&&&&",
"****************",
"&&&&&&&&&&&&&&&&",
"****************",
"&&&&&&&&&&&&&&&&",
"================",
"................",
"................"};
